ply
format ascii 1.0
element vertex 402
property float x
property float y
property float z
property uchar red
property uchar green
property uchar blue
end_header
  0.0225798   0.0448937 8.07117e-05 0 0 0
   0.202394   0.0224285 5.22943e-05 0 0 0
    0.179981    0.0223511 -0.000163992 0 0 0
   0.202399    0.157679 2.86262e-05 0 0 0
    0.179911    0.0899875 -1.56447e-05 0 0 0
   0.157482    0.089958 -8.5953e-05 0 0 0
   0.135029   0.0899793 0.000141485 0 0 0
   0.0899638    0.0223074 -0.000146375 0 0 0
  0.0450983   0.0899927 8.73209e-05 0 0 0
  0.0226045   0.0900058 0.000113747 0 0 0
   0.202343   0.0675689 0.000151556 0 0 0
    0.179891    0.0675301 -8.19854e-05 0 0 0
     0.15747    0.0675315 -9.23015e-05 0 0 0
    0.135052    0.0674912 -9.43714e-05 0 0 0
    0.112466     0.067544 -4.65428e-05 0 0 0
   0.0899316      0.06754 -4.81312e-05 0 0 0
   0.0676039    0.0675808 -2.72536e-06 0 0 0
  0.0675838   0.0899471 0.000159183 0 0 0
   0.0225166     0.022313 -8.08283e-05 0 0 0
    0.135021     0.157694 -6.76585e-05 0 0 0
    0.112461    0.0448874 -9.58348e-05 0 0 0
  0.0899491   0.0899814 0.000279659 0 0 0
   0.0450522    0.0222932 -9.15157e-06 0 0 0
    0.157489     0.157705 -0.000130968 0 0 0
    0.135064    0.0449012 -0.000146732 0 0 0
   0.0450719    0.0448706 -0.000108849 0 0 0
  0.0675328   0.0448992 3.25813e-06 0 0 0
   0.0899412    0.0448909 -7.06835e-05 0 0 0
    0.157467    0.0448971 -0.000105342 0 0 0
   0.112443   0.0899716 0.000346669 0 0 0
  0.0674929   0.0222912 -0.00013121 0 0 0
   0.179916    0.157645 1.71877e-05 0 0 0
    0.179925    0.0449468 -0.000119561 0 0 0
    0.202369    0.0449054 -6.28978e-05 0 0 0
  0.0225762   0.0675298 3.19234e-05 0 0 0
   0.0450948    0.0675284 -6.20753e-05 0 0 0
   0.202317    0.089951 0.000351249 0 0 0
   0.0225971     0.112463 -0.000102581 0 0 0
   0.0450428     0.112478 -0.000160961 0 0 0
 0.0675599    0.11247 0.00016697 0 0 0
 0.0899524   0.112445 5.7502e-05 0 0 0
    0.112466    0.0223205 -0.000194592 0 0 0
    0.112459     0.112467 -0.000209006 0 0 0
   0.135024    0.112445 0.000167055 0 0 0
   0.157501    0.112488 2.95308e-05 0 0 0
     0.17989     0.112411 -2.72328e-05 0 0 0
   0.202347    0.112456 4.69598e-05 0 0 0
   0.0225786     0.135174 -3.82293e-05 0 0 0
  0.0451109    0.135172 1.41457e-05 0 0 0
   0.0675168     0.135168 -4.51325e-05 0 0 0
    0.089987     0.135182 -0.000144743 0 0 0
    0.112452     0.135162 -6.49233e-05 0 0 0
    0.135076     0.022293 -4.12543e-05 0 0 0
    0.135045     0.135156 -0.000107479 0 0 0
    0.157452      0.13511 -6.01126e-05 0 0 0
    0.179926     0.135132 -5.87241e-05 0 0 0
   0.202326    0.135073 0.000184357 0 0 0
  0.0226083    0.157751 -0.00022031 0 0 0
   0.0450578     0.157752 -0.000333568 0 0 0
   0.0675387     0.157744 -0.000153272 0 0 0
   0.0899538     0.157737 -7.28934e-05 0 0 0
    0.112486     0.157745 -0.000186962 0 0 0
    0.157493    0.0223783 -1.32468e-06 0 0 0
 0.111419 0.0811891 0.0774447 255   0   0
 0.119175 0.0807257  0.077098 255   0   0
 0.127037 0.0800195  0.077205 255   0   0
 0.129088 0.0796623  0.076539 255   0   0
 0.133128 0.0785665 0.0749525 255   0   0
 0.177117 0.0584987  0.176782 255   0   0
0.176242 0.058472 0.165981 255   0   0
 0.176539 0.0588875  0.165012 255   0   0
 0.177187 0.0610292  0.157534 255   0   0
 0.152752 0.0800921 0.0698123 255   0   0
 0.175234 0.0622281  0.128762 255   0   0
 0.173379 0.0619677  0.119907 255   0   0
 0.171138 0.0624566  0.114019 255   0   0
0.167472 0.063503 0.110032 255   0   0
  0.16573 0.0644156   0.10316 255   0   0
 0.165282 0.0638863   0.10154 255   0   0
 0.160547  0.065286 0.0904801 255   0   0
 0.155798 0.0666779 0.0873771 255   0   0
 0.155143 0.0663038 0.0874338 255   0   0
 0.153824 0.0671103 0.0863657 255   0   0
 0.153587 0.0674098    0.0859 255   0   0
  0.15285 0.0695374 0.0825367 255   0   0
 0.152634 0.0700069 0.0818939 255   0   0
 0.151983 0.0711184 0.0802588 255   0   0
 0.150933 0.0719222 0.0790002 255   0   0
 0.150632 0.0721501 0.0785807 255   0   0
 0.148598 0.0740991 0.0768267 255   0   0
 0.148175 0.0745967 0.0766614 255   0   0
 0.147042 0.0756561 0.0764762 255   0   0
 0.141467 0.0804085  0.077065 255   0   0
 0.140933 0.0810185 0.0771284 255   0   0
 0.139725 0.0821714   0.07727 255   0   0
   0.1392 0.0826925 0.0773118 255   0   0
 0.138251 0.0839089 0.0772927 255   0   0
 0.136754 0.0860171 0.0769829 255   0   0
 0.135325 0.0893827  0.075722 255   0   0
 0.135205 0.0898775 0.0756303 255   0   0
 0.133331 0.0913525 0.0763423 255   0   0
 0.132115 0.0924917 0.0764395 255   0   0
 0.130029 0.0950659 0.0756204 255   0   0
  0.12803 0.0967665 0.0753744 255   0   0
 0.126958 0.0973385 0.0758542 255   0   0
 0.121454  0.100969 0.0799033 255   0   0
 0.116479  0.105509 0.0840165 255   0   0
 0.117116  0.107705 0.0905763 255   0   0
 0.117607   0.10826 0.0922608 255   0   0
 0.119267  0.114397 0.0958568 255   0   0
 0.12546 0.119794 0.097584 255   0   0
 0.126772  0.120713 0.0989668 255   0   0
0.130864 0.120372 0.102971 255   0   0
0.131928 0.120571 0.104307 255   0   0
0.132321 0.120681 0.104998 255   0   0
0.132474  0.12071 0.105381 255   0   0
  0.15727 0.0792544 0.0687572 255   0   0
0.141312  0.11768 0.104349 255   0   0
0.140412 0.116603  0.10394 255   0   0
0.139011  0.11514 0.103196 255   0   0
0.137288 0.113358 0.102172 255   0   0
 0.130726  0.106435 0.0980819 255   0   0
 0.129369   0.10554 0.0977444 255   0   0
 0.125316  0.103835 0.0977553 255   0   0
 0.117407  0.103516 0.0996409 255   0   0
  0.11663  0.103605 0.0999358 255   0   0
0.107751 0.102929  0.10219 255   0   0
0.107079 0.102856 0.102328 255   0   0
 0.10654 0.102687 0.102507 255   0   0
0.102598 0.100911 0.104115 255   0   0
0.102122 0.100446 0.104116 255   0   0
0.101659 0.100166 0.104181 255   0   0
0.0995828 0.0981846  0.103743 255   0   0
0.0987776 0.0975117  0.103219 255   0   0
0.0978046 0.0970723  0.103083 255   0   0
0.0968735 0.0969035  0.103217 255   0   0
0.0955999 0.0965414  0.102291 255   0   0
0.0963815 0.0963896  0.101012 255   0   0
0.0983129 0.0963165 0.0995148 255   0   0
0.0987564 0.0961389 0.0992274 255   0   0
0.0993422 0.0959255 0.0986018 255   0   0
0.0995852 0.0957102 0.0982162 255   0   0
 0.103404 0.0954831 0.0948398 255   0   0
 0.104377  0.094482 0.0942237 255   0   0
 0.104837 0.0944388 0.0939465 255   0   0
 0.184763  0.063055 0.0723565 255   0   0
 0.184005  0.061261 0.0727147 255   0   0
 0.182549 0.0565231  0.072559 255   0   0
 0.182261 0.0549596 0.0720224 255   0   0
  0.18196 0.0538663 0.0716539 255   0   0
 0.180987 0.0518873  0.071493 255   0   0
 0.176632 0.0468988 0.0714857 255   0   0
 0.173519 0.0448082 0.0710486 255   0   0
 0.172356 0.0439732 0.0707507 255   0   0
 0.169408 0.0421323 0.0701261 255   0   0
 0.165375 0.0406973 0.0695585 255   0   0
 0.163251  0.040683 0.0701114 255   0   0
 0.159967 0.0406915 0.0702151 255   0   0
 0.158273 0.0409454 0.0700722 255   0   0
 0.155774 0.0411419 0.0701125 255   0   0
 0.154869 0.0411608  0.069876 255   0   0
 0.153321 0.0415746 0.0695229 255   0   0
 0.148474 0.0435003 0.0696435 255   0   0
 0.146415 0.0441168 0.0697193 255   0   0
 0.143641 0.0446085  0.069608 255   0   0
 0.143242 0.0446837 0.0696182 255   0   0
   0.1428 0.0447709 0.0696573 255   0   0
 0.137628 0.0455177 0.0703758 255   0   0
 0.137141 0.0455877 0.0704526 255   0   0
 0.133039 0.0464656 0.0707941 255   0   0
 0.131925 0.0468051  0.070784 255   0   0
 0.128535 0.0457857 0.0694602 255   0   0
 0.127489 0.0453918 0.0692126 255   0   0
 0.126454 0.0450373 0.0684533 255   0   0
 0.125611  0.044649 0.0683529 255   0   0
 0.121973 0.0432923 0.0690061 255   0   0
 0.119674 0.0426882 0.0688192 255   0   0
 0.115967 0.0414864 0.0681138 255   0   0
 0.112931 0.0408775 0.0686086 255   0   0
 0.108203 0.0400998 0.0715434 255   0   0
 0.106991 0.0397907 0.0727155 255   0   0
 0.102544  0.039493 0.0763729 255   0   0
 0.102139 0.0399749 0.0765903 255   0   0
0.0963818 0.0457588 0.0779466 255   0   0
 0.095605 0.0468219 0.0781192 255   0   0
 0.185528 0.0802688 0.0708532 255   0   0
0.0943971  0.049886 0.0756555 255   0   0
 0.090067 0.0526499 0.0709216 255   0   0
 0.088628 0.0534419 0.0708626 255   0   0
0.0883604 0.0534956 0.0708589 255   0   0
0.0859089 0.0531785 0.0699544 255   0   0
0.0823028  0.055698 0.0686797 255   0   0
0.0802846 0.0564064 0.0691247 255   0   0
0.0793735 0.0573139 0.0687331 255   0   0
0.0734414 0.0608103 0.0685011 255   0   0
0.0732809 0.0609944 0.0684437 255   0   0
0.0721578 0.0642372 0.0679687 255   0   0
0.0732317 0.0669587 0.0672774 255   0   0
0.0736892 0.0683159 0.0670834 255   0   0
 0.191449  0.079037 0.0713509 255   0   0
 0.072519 0.0699602 0.0675935 255   0   0
 0.071181 0.0717065 0.0673086 255   0   0
0.0698131 0.0730057 0.0669916 255   0   0
0.0697195 0.0730837 0.0669072 255   0   0
 0.069233 0.0737904 0.0661919 255   0   0
0.0691689 0.0739018 0.0661471 255   0   0
 0.069095 0.0739615 0.0661243 255   0   0
0.0688768 0.0741033 0.0660802 255   0   0
0.0687754 0.0741619 0.0660619 255   0   0
0.0686594 0.0742143 0.0660545 255   0   0
0.0684981 0.0743079  0.066042 255   0   0
0.0684496 0.0744859 0.0659481 255   0   0
0.0683363   0.07481 0.0659808 255   0   0
 0.075107 0.0823786 0.0659533 255   0   0
0.0752036 0.0823262 0.0659196 255   0   0
0.0752417 0.0822927 0.0659248 255   0   0
0.0753731  0.082195 0.0659286 255   0   0
0.0754638 0.0821537 0.0659194 255   0   0
0.0756503 0.0820648 0.0659531 255   0   0
0.0757743 0.0820105 0.0659966 255   0   0
0.0760945 0.0819403 0.0660595 255   0   0
0.0768243 0.0819354 0.0661795 255   0   0
0.0769395 0.0819176 0.0662336 255   0   0
0.0770517 0.0818962 0.0662698 255   0   0
0.0771672 0.0819258 0.0662839 255   0   0
0.0791953 0.0817525 0.0664897 255   0   0
0.0793767 0.0817489 0.0665212 255   0   0
0.0813076 0.0816376 0.0670503 255   0   0
 0.081398  0.081627 0.0671244 255   0   0
 0.192502 0.0803397 0.0670696 255   0   0
0.0987448 0.0813445  0.067599 255   0   0
0.0985286 0.0813663 0.0675425 255   0   0
0.0975175 0.0814818 0.0675847 255   0   0
0.0972267 0.0815839 0.0676177 255   0   0
0.0910848 0.0821745 0.0669246 255   0   0
0.0896083 0.0821967 0.0671745 255   0   0
 0.089215  0.082157 0.0672487 255   0   0
0.0871358 0.0818705 0.0674796 255   0   0
0.0852433 0.0816034 0.0678638 255   0   0
0.0843365 0.0815332 0.0678922 255   0   0
0.0829415 0.0815337 0.0677099 255   0   0
 0.082238 0.0815059 0.0674347 255   0   0
0.0746408 0.0823414 0.0659352 255   0   0
 0.074295  0.082276 0.0660269 255   0   0
0.0741911 0.0822226 0.0660456 255   0   0
0.0738586 0.0819564 0.0659928 255   0   0
0.0736658 0.0817892 0.0659176 255   0   0
0.0733574 0.0816506 0.0658598 255   0   0
0.0722488 0.0810949 0.0661562 255   0   0
0.0719247 0.0809548 0.0662749 255   0   0
0.0715545  0.080759 0.0663919 255   0   0
0.0711411 0.0805057  0.066432 255   0   0
0.0709169 0.0803097 0.0664678 255   0   0
 0.070787 0.0801948 0.0664934 255   0   0
0.0706928 0.0801027 0.0665328 255   0   0
0.0705267 0.0799835 0.0665864 255   0   0
0.0704373 0.0799187 0.0666474 255   0   0
0.0703065 0.0797894 0.0667118 255   0   0
0.0699095 0.0793666 0.0669689 255   0   0
0.0695429 0.0790034  0.067053 255   0   0
0.0692673 0.0788079 0.0670728 255   0   0
0.0687901 0.0785296 0.0670878 255   0   0
0.0685851 0.0782447 0.0668326 255   0   0
0.0680728 0.0777688 0.0666634 255   0   0
 0.067835 0.0775937 0.0666949 255   0   0
0.0677433 0.0775001 0.0667045 255   0   0
0.0676859 0.0773818 0.0667017 255   0   0
0.0675198 0.0765981 0.0668808 255   0   0
0.0675301 0.0764962 0.0668563 255   0   0
0.0675779 0.0763852   0.06677 255   0   0
 0.067804 0.0761621 0.0665864 255   0   0
0.0682245 0.0755768 0.0661508 255   0   0
  0.18845 0.0740147 0.0712526 255   0   0
 0.189572 0.0877235 0.0730732 255   0   0
  0.17413 0.0794314  0.069127 255   0   0
 0.191041 0.0929676 0.0743791 255   0   0
 0.190928 0.0939941 0.0744377 255   0   0
  0.19132 0.0974439 0.0753873 255   0   0
0.192032 0.103332 0.079696 255   0   0
 0.190367  0.105886 0.0820817 255   0   0
 0.186225  0.106154 0.0780197 255   0   0
 0.185937  0.107181 0.0785152 255   0   0
 0.185146  0.112372 0.0794289 255   0   0
  0.18285  0.116279 0.0796641 255   0   0
 0.180603   0.11954 0.0811749 255   0   0
 0.177384  0.125459 0.0853321 255   0   0
 0.174619  0.126874 0.0869864 255   0   0
 0.170702  0.134809 0.0867865 255   0   0
 0.170546  0.134953 0.0867431 255   0   0
 0.168918  0.141902 0.0834106 255   0   0
 0.160636  0.145522 0.0855685 255   0   0
 0.154199  0.147689 0.0882488 255   0   0
 0.145343  0.152255 0.0887107 255   0   0
 0.141809  0.153437 0.0885126 255   0   0
0.135736 0.154774 0.087849 255   0   0
  0.12573  0.153115 0.0863831 255   0   0
 0.167552 0.0799974  0.067401 255   0   0
 0.116768  0.149689 0.0854767 255   0   0
 0.106985  0.151627 0.0820917 255   0   0
0.0978427  0.151858 0.0825316 255   0   0
0.0898217    0.1524 0.0829315 255   0   0
0.0850573  0.154002 0.0832607 255   0   0
0.0750721   0.15619 0.0839929 255   0   0
0.0656336  0.156019 0.0848509 255   0   0
0.0643212  0.156043 0.0850695 255   0   0
0.0561024  0.155188 0.0843101 255   0   0
0.0552003  0.154709 0.0842448 255   0   0
0.0502195  0.152277   0.08213 255   0   0
 0.047885   0.15016 0.0812895 255   0   0
0.0432338  0.144204 0.0808507 255   0   0
0.0410194   0.13918 0.0806332 255   0   0
0.0400605  0.135818 0.0807388 255   0   0
0.0390409  0.130869 0.0807958 255   0   0
0.0389353  0.130269 0.0809244 255   0   0
0.0370824  0.121724  0.081765 255   0   0
0.0368113  0.121047 0.0818877 255   0   0
0.0357234  0.118378 0.0824139 255   0   0
0.0341886  0.113933 0.0830977 255   0   0
0.0340768  0.113275 0.0831628 255   0   0
0.0340163  0.112767 0.0832001 255   0   0
0.0336419  0.109005 0.0833878 255   0   0
0.033644 0.108491 0.083353 255   0   0
 0.033625  0.107246 0.0832178 255   0   0
0.0334221  0.103975 0.0835531 255   0   0
0.0334122   0.10356 0.0835797 255   0   0
0.0333637  0.102538 0.0836762 255   0   0
0.0336198  0.101148 0.0839013 255   0   0
0.0339476 0.0985266 0.0841664 255   0   0
0.0340141 0.0979653 0.0842131 255   0   0
  0.03415 0.0971616 0.0843323 255   0   0
 0.034195  0.096477 0.0844941 255   0   0
0.0340152 0.0956883 0.0846364 255   0   0
0.0340133 0.0948047 0.0848353 255   0   0
0.0337089 0.0933951 0.0850564 255   0   0
 0.163017 0.0805371 0.0680274 255   0   0
 0.033371 0.0920783 0.0852803 255   0   0
0.0332245  0.090612 0.0853283 255   0   0
0.0331325 0.0898662 0.0853205 255   0   0
0.0332103 0.0895451 0.0853971 255   0   0
0.0332577  0.088114 0.0857947 255   0   0
0.0332943 0.0871773 0.0860835 255   0   0
0.0330334 0.0854057 0.0868375 255   0   0
0.0329363 0.0848666 0.0870433 255   0   0
 0.031904 0.0814416 0.0879549 255   0   0
0.0316824 0.0808575  0.087899 255   0   0
0.0358246 0.0726146 0.0904358 255   0   0
0.0361949 0.0716466 0.0908484 255   0   0
0.0374055 0.0695636 0.0913898 255   0   0
0.0404996 0.0650865 0.0920222 255   0   0
0.0419424 0.0638874 0.0922818 255   0   0
0.0478206 0.0642581 0.0928768 255   0   0
0.0522593 0.0654802 0.0951034 255   0   0
0.0538473 0.0654119 0.0959888 255   0   0
0.0714643 0.0627911 0.0967977 255   0   0
0.0784199 0.0605897 0.0965215 255   0   0
 0.079103 0.0605091 0.0964628 255   0   0
0.0797767 0.0604039 0.0963743 255   0   0
0.0806234 0.0601964 0.0961535 255   0   0
0.0829316 0.0594767 0.0956709 255   0   0
0.0841665 0.0594764 0.0951993 255   0   0
0.0891799 0.0580092 0.0935819 255   0   0
0.0907362 0.0578132 0.0928196 255   0   0
0.0914561  0.057706 0.0925985 255   0   0
0.0919778 0.0577141 0.0924289 255   0   0
0.0928143 0.0578484 0.0920399 255   0   0
0.0938266 0.0583469 0.0917841 255   0   0
0.0942401 0.0583794 0.0917889 255   0   0
0.0957956  0.058089 0.0918805 255   0   0
0.0969707 0.0582378 0.0922094 255   0   0
0.0986896 0.0586893 0.0928419 255   0   0
 0.099823 0.0591339 0.0928811 255   0   0
 0.102746 0.0607414 0.0924405 255   0   0
 0.103517 0.0611919 0.0922457 255   0   0
 0.105823  0.062884 0.0920478 255   0   0
  0.10631 0.0634421 0.0919697 255   0   0
 0.106535 0.0637177 0.0918997 255   0   0
 0.111924 0.0701433 0.0898627 255   0   0
 0.112281 0.0707199 0.0899012 255   0   0
 0.112677  0.071319 0.0900226 255   0   0
 0.113072 0.0717323 0.0901505 255   0   0
 0.115267 0.0729516 0.0906596 255   0   0
 0.120333 0.0722679 0.0931082 255   0   0
 0.121556 0.0727233 0.0927839 255   0   0
 0.123665 0.0736352 0.0937048 255   0   0
  0.12335 0.0745638 0.0958645 255   0   0
 0.122618 0.0743607 0.0970366 255   0   0
 0.120363 0.0801051  0.095794 255   0   0
 0.119855  0.082349 0.0947408 255   0   0
  0.11917 0.0833398 0.0944142 255   0   0
 0.118864 0.0839578 0.0942039 255   0   0
 0.118425 0.0846016   0.09399 255   0   0
 0.117696 0.0858417 0.0936027 255   0   0
 0.117294 0.0863912  0.093475 255   0   0
 0.116742 0.0874769 0.0931783 255   0   0
 0.116698 0.0875177 0.0930467 255   0   0
 0.116114 0.0881864 0.0921997 255   0   0
  0.11488  0.089245 0.0913131 255   0   0
 0.112095 0.0888163 0.0919172 255   0   0
 0.109991 0.0908081 0.0925674 255   0   0
 0.108011 0.0941798 0.0924532 255   0   0
 0.107652 0.0947629 0.0925445 255   0   0
 0.106557 0.0953281 0.0933275 255   0   0
