ply
format ascii 1.0
element vertex 402
property float x
property float y
property float z
property uchar red
property uchar green
property uchar blue
end_header
0.0225  0.045      0 0 0 0
0.2025 0.0225      0 0 0 0
  0.18 0.0225      0 0 0 0
0.2025 0.1575      0 0 0 0
0.18 0.09    0 0 0 0
0.1575   0.09      0 0 0 0
0.135  0.09     0 0 0 0
  0.09 0.0225      0 0 0 0
0.045  0.09     0 0 0 0
0.0225   0.09      0 0 0 0
0.2025 0.0675      0 0 0 0
  0.18 0.0675      0 0 0 0
0.1575 0.0675      0 0 0 0
 0.135 0.0675      0 0 0 0
0.1125 0.0675      0 0 0 0
  0.09 0.0675      0 0 0 0
0.0675 0.0675      0 0 0 0
0.0675   0.09      0 0 0 0
0.0225 0.0225      0 0 0 0
 0.135 0.1575      0 0 0 0
0.1125  0.045      0 0 0 0
0.09 0.09    0 0 0 0
 0.045 0.0225      0 0 0 0
0.1575 0.1575      0 0 0 0
0.135 0.045     0 0 0 0
0.045 0.045     0 0 0 0
0.0675  0.045      0 0 0 0
 0.09 0.045     0 0 0 0
0.1575  0.045      0 0 0 0
0.1125   0.09      0 0 0 0
0.0675 0.0225      0 0 0 0
  0.18 0.1575      0 0 0 0
 0.18 0.045     0 0 0 0
0.2025  0.045      0 0 0 0
0.0225 0.0675      0 0 0 0
 0.045 0.0675      0 0 0 0
0.2025   0.09      0 0 0 0
0.0225 0.1125      0 0 0 0
 0.045 0.1125      0 0 0 0
0.0675 0.1125      0 0 0 0
  0.09 0.1125      0 0 0 0
0.1125 0.0225      0 0 0 0
0.1125 0.1125      0 0 0 0
 0.135 0.1125      0 0 0 0
0.1575 0.1125      0 0 0 0
  0.18 0.1125      0 0 0 0
0.2025 0.1125      0 0 0 0
0.0225  0.135      0 0 0 0
0.045 0.135     0 0 0 0
0.0675  0.135      0 0 0 0
 0.09 0.135     0 0 0 0
0.1125  0.135      0 0 0 0
 0.135 0.0225      0 0 0 0
0.135 0.135     0 0 0 0
0.1575  0.135      0 0 0 0
 0.18 0.135     0 0 0 0
0.2025  0.135      0 0 0 0
0.0225 0.1575      0 0 0 0
 0.045 0.1575      0 0 0 0
0.0675 0.1575      0 0 0 0
  0.09 0.1575      0 0 0 0
0.1125 0.1575      0 0 0 0
0.1575 0.0225      0 0 0 0
 0.108932  0.081551 0.0708658 255   0   0
 0.127506 0.0820275  0.101656 255   0   0
 0.123076  0.080641 0.0673871 255   0   0
 0.131466 0.0806188 0.0848792 255   0   0
 0.131093 0.0789871  0.073607 255   0   0
 0.192161 0.0497153   0.20789 255   0   0
 0.17804 0.061423 0.167268 255   0   0
 0.188246 0.0575188  0.189301 255   0   0
 0.184919 0.0603089  0.176959 255   0   0
  0.15848 0.0805776  0.082544 255   0   0
0.174416 0.064121 0.126127 255   0   0
 0.197695 0.0612921  0.202616 255   0   0
 0.186026 0.0606088  0.160475 255   0   0
 0.176138 0.0625675  0.136335 255   0   0
 0.179082 0.0621581  0.149719 255   0   0
  0.17109 0.0631198  0.116164 255   0   0
 0.162676 0.0665486 0.0958199 255   0   0
 0.162314 0.0695874  0.111638 255   0   0
0.164583 0.067924 0.125071 255   0   0
 0.153584 0.0680272 0.0867836 255   0   0
 0.151449 0.0683735 0.0746299 255   0   0
 0.165378 0.0694226  0.156504 255   0   0
 0.176413 0.0653852  0.192488 255   0   0
  0.17897 0.0616504  0.244264 255   0   0
 0.160593 0.0716451  0.140505 255   0   0
 0.154187 0.0734226   0.10502 255   0   0
 0.147191 0.0752473 0.0654711 255   0   0
 0.156172 0.0743312  0.124409 255   0   0
 0.148352 0.0766338 0.0906636 255   0   0
 0.147245 0.0823648    0.1136 255   0   0
0.144736 0.082831 0.102654 255   0   0
 0.140446 0.0827924 0.0798223 255   0   0
 0.140742 0.0839173 0.0918808 255   0   0
 0.137522 0.0850305  0.068113 255   0   0
0.148199 0.090818 0.132817 255   0   0
 0.138304 0.0934853 0.0991833 255   0   0
  0.13931 0.0963875  0.122737 255   0   0
 0.133421 0.0933337 0.0848148 255   0   0
 0.134342 0.0978667  0.108906 255   0   0
 0.13488 0.110712 0.147182 255   0   0
 0.128182  0.097736 0.0759113 255   0   0
0.129485 0.105885 0.120259 255   0   0
 0.120594   0.10018 0.0692923 255   0   0
0.121463 0.113135 0.120261 255   0   0
 0.115321  0.104938 0.0773472 255   0   0
 0.11936 0.109994 0.096064 255   0   0
0.122801 0.116336 0.105999 255   0   0
 0.13069 0.122101 0.110352 255   0   0
 0.124528  0.118184 0.0833092 255   0   0
0.143153 0.126897 0.145967 255   0   0
0.141278 0.124253 0.131118 255   0   0
 0.129862  0.118654 0.0952188 255   0   0
0.137569 0.122053 0.117802 255   0   0
 0.156874 0.0801297 0.0692608 255   0   0
0.148142 0.118773 0.121048 255   0   0
 0.136219  0.114865 0.0881873 255   0   0
  0.13863  0.114208 0.0991707 255   0   0
0.141446 0.114277  0.11281 255   0   0
 0.128044  0.104178 0.0841725 255   0   0
0.132577 0.107013 0.105063 255   0   0
 0.126656  0.102806 0.0944746 255   0   0
 0.115748   0.10104 0.0884781 255   0   0
0.119683 0.103431 0.104342 255   0   0
 0.107796   0.10211 0.0956159 255   0   0
0.112956 0.105423 0.126373 255   0   0
0.118085  0.10722 0.149303 255   0   0
0.105057 0.102167 0.113019 255   0   0
0.129734 0.106833 0.228407 255   0   0
0.118113 0.104852 0.179051 255   0   0
0.121262  0.10296 0.237515 255   0   0
0.109466 0.102326 0.193042 255   0   0
0.126672 0.105208 0.270047 255   0   0
0.124764 0.102413 0.258185 255   0   0
 0.103806 0.0957377  0.146956 255   0   0
 0.100653 0.0959699  0.123992 255   0   0
0.119276 0.097298 0.199894 255   0   0
 0.111173 0.0960184   0.15785 255   0   0
 0.115381 0.0963733  0.171567 255   0   0
 0.100007 0.0947551 0.0932846 255   0   0
 0.123332 0.0972466  0.187923 255   0   0
  0.11069 0.0955274  0.127487 255   0   0
 0.122288 0.0999909  0.162407 255   0   0
 0.191943 0.0631786 0.0934365 255   0   0
 0.195406 0.0635372  0.106653 255   0   0
  0.18239 0.0562268 0.0740045 255   0   0
 0.185174 0.0551539 0.0846849 255   0   0
 0.192118 0.0536425 0.0970246 255   0   0
 0.195035 0.0519804   0.10655 255   0   0
 0.185231 0.0466807 0.0992517 255   0   0
 0.177624 0.0428067 0.0801695 255   0   0
 0.185362 0.0409106  0.109244 255   0   0
 0.178085 0.0390346 0.0943572 255   0   0
 0.166776 0.0386528 0.0743589 255   0   0
 0.175523 0.0352119  0.107914 255   0   0
 0.168162 0.0364641  0.093311 255   0   0
 0.155126 0.0427513 0.0624382 255   0   0
 0.160443  0.037607 0.0834599 255   0   0
0.163649 0.033961 0.102236 255   0   0
 0.154645 0.0396585 0.0741474 255   0   0
  0.15328 0.0383728 0.0963812 255   0   0
 0.144284 0.0446845 0.0609384 255   0   0
 0.147251 0.0404917 0.0864659 255   0   0
0.144848 0.042661 0.076891 255   0   0
 0.151844 0.0357437  0.114447 255   0   0
  0.14362 0.0368699  0.106556 255   0   0
0.136701 0.045945  0.06928 255   0   0
 0.136188 0.0428124 0.0953912 255   0   0
 0.132408 0.0444766 0.0797976 255   0   0
 0.132191 0.0375694  0.109567 255   0   0
 0.127035 0.0455583 0.0655186 255   0   0
 0.126424 0.0409418  0.090614 255   0   0
 0.125549 0.0349031  0.117346 255   0   0
 0.121394 0.0410426 0.0763386 255   0   0
 0.118919 0.0445325 0.0583626 255   0   0
 0.116353 0.0403537  0.067576 255   0   0
 0.111959 0.0372216 0.0792437 255   0   0
 0.107774 0.0428343 0.0610305 255   0   0
 0.104701  0.031525 0.0961558 255   0   0
  0.10111 0.0382007 0.0809358 255   0   0
 0.102632 0.0411474 0.0697474 255   0   0
0.0935296 0.0432857 0.0916726 255   0   0
0.0962168 0.0470547 0.0753541 255   0   0
 0.185842 0.0808622 0.0720122 255   0   0
0.0968816 0.0519168 0.0642544 255   0   0
0.0876029 0.0504829 0.0821386 255   0   0
0.0838601 0.0499143 0.0917559 255   0   0
0.0880908 0.0533142 0.0701977 255   0   0
0.0796693 0.0466799  0.101846 255   0   0
0.0821627 0.0573411 0.0589614 255   0   0
0.0776113  0.052839 0.0838421 255   0   0
0.0780698 0.0556015  0.073525 255   0   0
0.0698299 0.0522599 0.0989193 255   0   0
 0.072967 0.0615983 0.0639114 255   0   0
0.0686759 0.0600379 0.0920631 255   0   0
0.0709145 0.0661204 0.0754301 255   0   0
0.0670787 0.0619451  0.108623 255   0   0
 0.199572 0.0794542 0.0842334 255   0   0
0.0725213 0.0708309 0.0578488 255   0   0
0.0669713 0.0694074 0.0964911 255   0   0
0.0679081 0.0722279 0.0840603 255   0   0
0.0626065 0.0653593  0.170971 255   0   0
0.0648904 0.0704846  0.119471 255   0   0
0.0678796 0.0733298   0.06911 255   0   0
0.0612241  0.066562  0.151446 255   0   0
0.0557201 0.0620474  0.209043 255   0   0
0.0501709 0.0705835   0.21568 255   0   0
0.0515874 0.0569445   0.26145 255   0   0
0.0525411 0.0612412  0.246069 255   0   0
0.0514065 0.0656108  0.272357 255   0   0
0.0650464 0.0722214  0.143517 255   0   0
0.0744381  0.086267  0.113384 255   0   0
0.0753789 0.0972189  0.190083 255   0   0
0.0749053 0.0837719 0.0824976 255   0   0
0.0757896 0.0913942  0.166225 255   0   0
0.0844935  0.102322  0.224063 255   0   0
0.0795924 0.0946175  0.179335 255   0   0
0.0834925 0.0958539  0.196846 255   0   0
0.0842967 0.0987571   0.20732 255   0   0
 0.077283 0.0863489  0.103031 255   0   0
0.0829296 0.0916503  0.151887 255   0   0
0.0884056  0.108899  0.267014 255   0   0
0.0876697 0.0979777  0.187453 255   0   0
0.0909203 0.0934039  0.170193 255   0   0
0.0820817 0.0871008  0.123565 255   0   0
0.0804311 0.0824237 0.0688554 255   0   0
0.0904508 0.0905998  0.142112 255   0   0
 0.196346 0.0803261 0.0723377 255   0   0
 0.100136 0.0828832 0.0762172 255   0   0
0.0971741 0.0817474 0.0644661 255   0   0
 0.106472 0.0858858  0.107013 255   0   0
 0.101175 0.0837435 0.0871935 255   0   0
0.0884936 0.0822955 0.0572994 255   0   0
0.0903482 0.0836502 0.0728085 255   0   0
0.0945901 0.0855503  0.102669 255   0   0
0.0898427 0.0835679 0.0846961 255   0   0
 0.093426 0.0855619  0.121263 255   0   0
0.0871077 0.0845664 0.0943177 255   0   0
0.0875137 0.0859971  0.112371 255   0   0
0.0900372 0.0874867  0.131989 255   0   0
0.0711581  0.105737  0.265744 255   0   0
0.0732981 0.0820795 0.0558203 255   0   0
0.0737818 0.0846112 0.0931841 255   0   0
0.0737166 0.0881182  0.134916 255   0   0
0.0766895  0.105059  0.246991 255   0   0
0.0669236 0.0943005  0.216359 255   0   0
0.0686403 0.0881063   0.14683 255   0   0
0.0730058 0.0966884  0.251137 255   0   0
0.0684141 0.0936261  0.183027 255   0   0
0.0686535 0.0834539  0.155919 255   0   0
0.0633366  0.102483  0.257293 255   0   0
0.0711135  0.102932  0.276179 255   0   0
0.0679715 0.0866375  0.199797 255   0   0
0.0840352 0.0985751  0.261398 255   0   0
0.0688094   0.08364  0.122381 255   0   0
0.0627971 0.0931926  0.272226 255   0   0
0.0660962 0.0989407  0.242435 255   0   0
0.0584144 0.0846173  0.223352 255   0   0
0.0555015 0.0891201  0.235546 255   0   0
  0.06487 0.0831993  0.173196 255   0   0
0.0467881 0.0765697  0.248204 255   0   0
0.0550112 0.0718513   0.24401 255   0   0
 0.059638 0.0741919  0.207481 255   0   0
0.0597265 0.0788062  0.260516 255   0   0
0.0567059   0.07138  0.279119 255   0   0
0.0701806 0.0738745   0.19113 255   0   0
0.0609959 0.0703464    0.1798 255   0   0
0.0565716 0.0630197  0.226107 255   0   0
0.0640828 0.0736454  0.133481 255   0   0
0.0645097 0.0741944  0.108794 255   0   0
 0.190398 0.0736067 0.0778481 255   0   0
 0.191386 0.0877649 0.0786745 255   0   0
 0.175901 0.0799829 0.0730401 255   0   0
 0.199885 0.0929205 0.0903824 255   0   0
 0.186081   0.09424 0.0671304 255   0   0
 0.192842 0.0980949 0.0804293 255   0   0
 0.198257  0.104034 0.0905641 255   0   0
0.198723 0.106687 0.100523 255   0   0
0.188911 0.107792 0.083783 255   0   0
 0.183627  0.105597 0.0751456 255   0   0
0.191578 0.114365 0.090933 255   0   0
 0.184448  0.117277 0.0832557 255   0   0
 0.186418   0.12262 0.0937506 255   0   0
 0.176188   0.12404 0.0824285 255   0   0
 0.177522  0.129108 0.0935232 255   0   0
 0.172966  0.138001 0.0962709 255   0   0
0.170069 0.133022 0.084177 255   0   0
  0.16949  0.142799 0.0869246 255   0   0
 0.159454  0.142711 0.0822823 255   0   0
0.155245 0.149686 0.091434 255   0   0
 0.143802  0.148134 0.0840109 255   0   0
 0.14421 0.155638 0.094064 255   0   0
0.135919 0.153436 0.087242 255   0   0
0.125889 0.152795 0.087063 255   0   0
 0.166882  0.080544 0.0678147 255   0   0
 0.116963  0.149013 0.0843778 255   0   0
  0.10756  0.147886 0.0791268 255   0   0
0.0977254  0.148838 0.0806783 255   0   0
0.0897343  0.154451  0.085411 255   0   0
0.0850965  0.148849  0.077087 255   0   0
0.0751808  0.153626 0.0822089 255   0   0
0.0664243  0.149001 0.0755405 255   0   0
 0.065668  0.156323 0.0872982 255   0   0
0.0578686  0.152927 0.0796553 255   0   0
0.0558688  0.156084 0.0904244 255   0   0
0.0516288  0.146355 0.0722845 255   0   0
0.0484718  0.150034 0.0822558 255   0   0
0.0449634  0.138572 0.0710356 255   0   0
 0.042604  0.140993 0.0841265 255   0   0
0.0378915  0.143589  0.104613 255   0   0
0.0415473  0.127679 0.0742098 255   0   0
 0.037485  0.133727 0.0911383 255   0   0
0.0311577  0.128522  0.104596 255   0   0
0.0382441  0.121749 0.0817342 255   0   0
0.0388316   0.11359 0.0698272 255   0   0
0.0292655  0.119393  0.111693 255   0   0
0.0335063   0.11585  0.091162 255   0   0
0.030652 0.116413 0.101088 255   0   0
0.0362635  0.109075  0.079022 255   0   0
0.0247208  0.115251  0.125297 255   0   0
0.0204105  0.116946  0.139787 255   0   0
0.00955604   0.113826    0.16434 255   0   0
0.0248495  0.107178  0.116515 255   0   0
0.0331496  0.103751  0.091434 255   0   0
0.0137227  0.108145  0.147166 255   0   0
0.0103639  0.102913  0.170121 255   0   0
0.0133172  0.103593  0.157701 255   0   0
0.0260052 0.0990391  0.110156 255   0   0
0.0216642 0.0968003  0.123161 255   0   0
0.0187143 0.0954405  0.135971 255   0   0
0.00424028  0.0967611   0.182642 255   0   0
0.0136394 0.0932968  0.145271 255   0   0
 0.171843 0.0804397 0.0844607 255   0   0
0.025515 0.089606 0.116194 255   0   0
0.0349968 0.0897895 0.0832646 255   0   0
0.0107771 0.0839282  0.160081 255   0   0
0.0199918 0.0843695  0.143273 255   0   0
0.0309783 0.0855814  0.104131 255   0   0
 0.015845 0.0762934  0.155144 255   0   0
0.0234849 0.0780658  0.130334 255   0   0
0.0284044  0.078862  0.119853 255   0   0
0.0329021 0.0792657 0.0893723 255   0   0
0.0349182 0.0832791  0.075342 255   0   0
0.0381272 0.0739812  0.081551 255   0   0
0.0341302  0.069541  0.099844 255   0   0
0.0399801 0.0696447 0.0914098 255   0   0
0.0383946 0.0577502  0.113817 255   0   0
0.0457292 0.0660214 0.0805125 255   0   0
0.0496365 0.0652739 0.0923483 255   0   0
0.0552364 0.0669491 0.0837018 255   0   0
0.0527062 0.0617082  0.103144 255   0   0
0.0640282 0.0551695   0.13929 255   0   0
0.0778265 0.0587781    0.1073 255   0   0
0.0743623 0.0577393  0.121037 255   0   0
0.0604372  0.053168  0.196828 255   0   0
0.0516791 0.0527802  0.213741 255   0   0
0.0510919 0.0546219  0.231359 255   0   0
0.0714932 0.0599846  0.159679 255   0   0
0.0723321 0.0634632  0.184134 255   0   0
0.0793669 0.0648286  0.174387 255   0   0
0.0888276 0.0574892  0.117033 255   0   0
0.0704289 0.0649741  0.205252 255   0   0
0.0889261 0.0614092  0.128307 255   0   0
0.0840277 0.0672786   0.15852 255   0   0
0.0950436 0.0566953 0.0872979 255   0   0
0.0888584 0.0642972  0.143202 255   0   0
0.0966013 0.0567587 0.0979607 255   0   0
0.0951505 0.0714376   0.15294 255   0   0
0.0988602 0.0620236  0.111681 255   0   0
0.0998533 0.0650872  0.141143 255   0   0
 0.103267 0.0579043 0.0809468 255   0   0
 0.105192 0.0622269 0.0929715 255   0   0
 0.104879 0.0662919  0.118727 255   0   0
 0.104365 0.0700541  0.130031 255   0   0
 0.097905 0.0920843   0.20744 255   0   0
  0.11149 0.0706142 0.0917079 255   0   0
 0.113107 0.0683679 0.0760148 255   0   0
 0.110288 0.0780938  0.126825 255   0   0
 0.114552 0.0737932  0.105138 255   0   0
  0.12017 0.0720953 0.0964729 255   0   0
  0.12088 0.0703812 0.0855231 255   0   0
 0.121292 0.0829704  0.126321 255   0   0
 0.120585 0.0781584  0.117141 255   0   0
 0.124035 0.0810478  0.138265 255   0   0
0.138034 0.101634 0.199543 255   0   0
 0.118771 0.0803413  0.084311 255   0   0
 0.128731 0.0913133  0.164655 255   0   0
 0.135113 0.0960186  0.188301 255   0   0
 0.143322 0.0997923  0.217586 255   0   0
0.140153 0.104031 0.286318 255   0   0
   0.1199 0.0920686  0.152094 255   0   0
0.141763 0.100857  0.24347 255   0   0
  0.11934 0.0881175  0.101072 255   0   0
 0.145983 0.0925629  0.232394 255   0   0
 0.113799 0.0876641 0.0775933 255   0   0
 0.121987 0.0919248  0.130806 255   0   0
 0.110094 0.0892781 0.0933971 255   0   0
 0.119759 0.0982559  0.140941 255   0   0
 0.113549 0.0954822  0.110395 255   0   0
 0.105161 0.0936226 0.0831705 255   0   0
