ply
format ascii 1.0
element vertex 66
property float x
property float y
property float z
property uchar red
property uchar green
property uchar blue
end_header
0.0225  0.045      0 0 0 0
0.2025 0.0225      0 0 0 0
  0.18 0.0225      0 0 0 0
0.2025 0.1575      0 0 0 0
0.18 0.09    0 0 0 0
0.1575   0.09      0 0 0 0
0.135  0.09     0 0 0 0
  0.09 0.0225      0 0 0 0
0.045  0.09     0 0 0 0
0.0225   0.09      0 0 0 0
0.2025 0.0675      0 0 0 0
  0.18 0.0675      0 0 0 0
0.1575 0.0675      0 0 0 0
 0.135 0.0675      0 0 0 0
0.1125 0.0675      0 0 0 0
  0.09 0.0675      0 0 0 0
0.0675 0.0675      0 0 0 0
0.0675   0.09      0 0 0 0
0.0225 0.0225      0 0 0 0
 0.135 0.1575      0 0 0 0
0.1125  0.045      0 0 0 0
0.09 0.09    0 0 0 0
 0.045 0.0225      0 0 0 0
0.1575 0.1575      0 0 0 0
0.135 0.045     0 0 0 0
0.045 0.045     0 0 0 0
0.0675  0.045      0 0 0 0
 0.09 0.045     0 0 0 0
0.1575  0.045      0 0 0 0
0.1125   0.09      0 0 0 0
0.0675 0.0225      0 0 0 0
  0.18 0.1575      0 0 0 0
 0.18 0.045     0 0 0 0
0.2025  0.045      0 0 0 0
0.0225 0.0675      0 0 0 0
 0.045 0.0675      0 0 0 0
0.2025   0.09      0 0 0 0
0.0225 0.1125      0 0 0 0
 0.045 0.1125      0 0 0 0
0.0675 0.1125      0 0 0 0
  0.09 0.1125      0 0 0 0
0.1125 0.0225      0 0 0 0
0.1125 0.1125      0 0 0 0
 0.135 0.1125      0 0 0 0
0.1575 0.1125      0 0 0 0
  0.18 0.1125      0 0 0 0
0.2025 0.1125      0 0 0 0
0.0225  0.135      0 0 0 0
0.045 0.135     0 0 0 0
0.0675  0.135      0 0 0 0
 0.09 0.135     0 0 0 0
0.1125  0.135      0 0 0 0
 0.135 0.0225      0 0 0 0
0.135 0.135     0 0 0 0
0.1575  0.135      0 0 0 0
 0.18 0.135     0 0 0 0
0.2025  0.135      0 0 0 0
0.0225 0.1575      0 0 0 0
 0.045 0.1575      0 0 0 0
0.0675 0.1575      0 0 0 0
  0.09 0.1575      0 0 0 0
0.1125 0.1575      0 0 0 0
0.1575 0.0225      0 0 0 0
  0.122417   0.098843 -0.0861218 255   0   0
 0.122477 0.0743529 -0.155789 255   0   0
 0.104431 0.0779435 -0.125382 255   0   0
