ply
format ascii 1.0
element vertex 846
property float x
property float y
property float z
property uchar red
property uchar green
property uchar blue
end_header
  0.0226372   0.0449071 0.000109132 0 0 0
    0.202313    0.0225045 -1.87664e-05 0 0 0
    0.179961    0.0223882 -0.000214713 0 0 0
    0.202359     0.157608 -7.27187e-05 0 0 0
    0.179956    0.0900075 -1.91042e-05 0 0 0
    0.157494    0.0899555 -6.90329e-06 0 0 0
   0.135059   0.0900312 6.88712e-05 0 0 0
   0.0899704    0.0223293 -0.000152724 0 0 0
  0.0450678   0.0899734 0.000137597 0 0 0
  0.0226258   0.0899698 0.000169571 0 0 0
    0.202377    0.0675636 -2.01509e-05 0 0 0
     0.17993    0.0675217 -2.96141e-05 0 0 0
    0.157528    0.0675816 -9.99669e-05 0 0 0
    0.135064    0.0674977 -1.79911e-06 0 0 0
   0.1125 0.0675534 8.817e-05 0 0 0
  0.0899876   0.0675001 6.30407e-05 0 0 0
   0.0675045    0.0674848 -6.11984e-05 0 0 0
  0.0675281   0.0899889 0.000175192 0 0 0
   0.0225614    0.0223923 -0.000198204 0 0 0
    0.135017     0.157712 -0.000252415 0 0 0
     0.1125    0.044861 1.79537e-05 0 0 0
  0.0900111   0.0900079 0.000424576 0 0 0
   0.0451065    0.0223321 -4.94873e-05 0 0 0
    0.157514     0.157746 -0.000312152 0 0 0
    0.135037    0.0448841 -0.000128249 0 0 0
   0.0449216    0.0448417 -0.000344095 0 0 0
  0.0675874   0.0448676 0.000160907 0 0 0
   0.0899486    0.0448526 -1.43876e-05 0 0 0
    0.157509    0.0448637 -9.69812e-05 0 0 0
   0.112519   0.0899684 0.000478026 0 0 0
   0.0674634    0.0223117 -0.000213667 0 0 0
    0.179922     0.157594 -3.56124e-05 0 0 0
    0.179929    0.0449445 -6.39499e-05 0 0 0
    0.202385     0.044898 -0.000192755 0 0 0
  0.0226391   0.0675418 0.000165334 0 0 0
   0.0450801    0.0674992 -1.56478e-05 0 0 0
   0.202341   0.0899389 0.000212114 0 0 0
   0.0226559      0.11245 -1.65521e-05 0 0 0
   0.0450817     0.112472 -3.64006e-05 0 0 0
  0.0675939    0.112463 0.000397658 0 0 0
  0.0899902    0.112468 0.000151668 0 0 0
    0.112443    0.0223431 -0.000233585 0 0 0
    0.112481     0.112483 -0.000217213 0 0 0
   0.135052    0.112426 0.000170996 0 0 0
   0.157517    0.112497 5.06319e-05 0 0 0
    0.179929     0.112418 -1.33727e-05 0 0 0
     0.20242     0.112468 -9.62078e-05 0 0 0
  0.0226322    0.135112 3.89869e-05 0 0 0
  0.0453001    0.135069 0.000429875 0 0 0
   0.0673771     0.135246 -0.000303281 0 0 0
   0.0899853     0.135169 -0.000136415 0 0 0
    0.112464     0.135157 -4.00358e-05 0 0 0
    0.135057    0.0223224 -7.54896e-05 0 0 0
    0.135064     0.135164 -0.000176428 0 0 0
    0.157481     0.135116 -0.000157169 0 0 0
    0.179976     0.135158 -0.000126035 0 0 0
   0.202312    0.135034 0.000110855 0 0 0
   0.0225992     0.157662 -0.000198712 0 0 0
   0.0449571     0.157784 -0.000559297 0 0 0
   0.0675335      0.15771 -0.000193449 0 0 0
   0.0899323     0.157768 -0.000206559 0 0 0
    0.112492     0.157787 -0.000392323 0 0 0
    0.157473    0.0223996 -9.26536e-05 0 0 0
 0.111688 0.0852427   0.27283 255   0   0
0.130713 0.103239 0.169792 255   0   0
 0.13125 0.104202 0.169886 255   0   0
 0.13119 0.104971 0.169929 255   0   0
0.131016 0.105594 0.169769 255   0   0
0.130506 0.106123  0.16968 255   0   0
0.130005 0.106606 0.169579 255   0   0
0.129617 0.107045  0.16949 255   0   0
0.129542 0.107217 0.169365 255   0   0
0.129491 0.107442 0.169289 255   0   0
0.129502 0.107671  0.16921 255   0   0
  0.11127 0.0849611   0.26812 255   0   0
0.129679 0.107955 0.169149 255   0   0
0.129801 0.108229 0.169146 255   0   0
0.130132 0.108511 0.169154 255   0   0
0.130348 0.108923 0.169244 255   0   0
0.130756 0.109249 0.169299 255   0   0
0.131027 0.109859 0.169372 255   0   0
0.131304 0.110559 0.169459 255   0   0
0.131621 0.111379 0.169532 255   0   0
0.131617  0.11243 0.169662 255   0   0
 0.13175 0.113496 0.169766 255   0   0
 0.110619 0.0845033   0.26318 255   0   0
 0.13137 0.114531 0.169763 255   0   0
0.131563 0.117942 0.169877 255   0   0
0.131071 0.118597 0.169984 255   0   0
0.130502 0.119831 0.170102 255   0   0
0.130453 0.120318 0.169988 255   0   0
0.129898 0.121381 0.169935 255   0   0
0.129656 0.121867 0.169894 255   0   0
 0.12929 0.122355 0.169817 255   0   0
 0.111456 0.0846974  0.259067 255   0   0
0.128984 0.122604 0.169686 255   0   0
0.128611 0.122635 0.169592 255   0   0
0.128366 0.122249 0.169434 255   0   0
0.127964 0.121624 0.169335 255   0   0
0.127435 0.120822 0.169116 255   0   0
  0.124808 -0.0161918     0.1729 255   0   0
  0.124105 -0.0165764   0.173027 255   0   0
  0.125379 -0.0171719   0.172977 255   0   0
  0.125355 -0.0168501   0.172722 255   0   0
 0.111252 0.0855339  0.239698 255   0   0
 0.110589 0.0864679  0.229995 255   0   0
 0.104923 0.0917909  0.159928 255   0   0
 0.10972 0.086826  0.22536 255   0   0
0.123501 0.183876  0.17171 255   0   0
0.124014 0.183959 0.171282 255   0   0
0.123993  0.18315  0.17095 255   0   0
 0.12393 0.181192 0.170719 255   0   0
 0.109349 0.0872505  0.220627 255   0   0
 0.109073 0.0876216  0.215779 255   0   0
 0.109248 0.0879955  0.210659 255   0   0
0.108246 0.088252 0.205824 255   0   0
  0.122761 -0.0235501   0.166717 255   0   0
  0.123546 -0.0240519   0.166444 255   0   0
  0.123991 -0.0239203   0.166543 255   0   0
  0.124232 -0.0231044    0.16625 255   0   0
0.107835 0.088354 0.200805 255   0   0
 0.106819 0.0895822  0.195737 255   0   0
 0.106875 0.0896486   0.19083 255   0   0
0.107176 0.089712 0.186119 255   0   0
0.119099 0.190961 0.163561 255   0   0
0.119282 0.191578 0.163196 255   0   0
0.119438 0.191454 0.162827 255   0   0
0.119656 0.190556 0.162478 255   0   0
 0.107557 0.0901232   0.18151 255   0   0
 0.105024 0.0918058  0.159901 255   0   0
 0.107161 0.0901288  0.177505 255   0   0
 0.106971 0.0900743  0.173673 255   0   0
 0.106467 0.0903559  0.170492 255   0   0
   0.11409 -0.0205879   0.161138 255   0   0
   0.11378 -0.0211026   0.160222 255   0   0
  0.113973 -0.0204446    0.16105 255   0   0
 0.106019 0.0907333  0.167816 255   0   0
 0.105547 0.0907395   0.16564 255   0   0
 0.105338 0.0911309  0.163926 255   0   0
 0.116951 0.0824402  0.156095 255   0   0
 0.116619 0.0864987   0.15614 255   0   0
 0.116204 0.0873105  0.156654 255   0   0
0.116235 0.087651 0.157136 255   0   0
 0.116249 0.0878553  0.157818 255   0   0
 0.116371 0.0877911  0.158839 255   0   0
 0.116406 0.0877143  0.160248 255   0   0
 0.116445 0.0875566  0.162023 255   0   0
 0.105231 0.0913634  0.162662 255   0   0
 0.116826 0.0872689  0.164285 255   0   0
 0.117213 0.0869154  0.166879 255   0   0
 0.117391 0.0867493  0.169959 255   0   0
 0.117572 0.0865095  0.173416 255   0   0
 0.117825 0.0861488  0.177124 255   0   0
 0.118599 0.0860438  0.180865 255   0   0
 0.119043 0.0860906  0.184752 255   0   0
 0.119798 0.0858309  0.188628 255   0   0
 0.120525 0.0857279  0.192562 255   0   0
    0.121 0.0858785  0.196591 255   0   0
   0.1052 0.0914468  0.161769 255   0   0
 0.120017 0.0851444  0.200954 255   0   0
 0.121523 0.0860186  0.205071 255   0   0
 0.121734 0.0861515  0.209343 255   0   0
 0.122471 0.0859968  0.213565 255   0   0
 0.122668 0.0860112  0.217925 255   0   0
 0.123807 0.0857063  0.221821 255   0   0
0.123686   0.0861 0.226203 255   0   0
 0.125432 0.0853906  0.234282 255   0   0
   0.1052 0.0914266  0.161175 255   0   0
 0.105096 0.0915179  0.160842 255   0   0
 0.105029 0.0918675  0.159894 255   0   0
 0.105077 0.0914828  0.160644 255   0   0
 0.105026 0.0914798   0.16053 255   0   0
 0.104953 0.0915499  0.160467 255   0   0
 0.114724 0.0916425  0.217628 255   0   0
 0.104935 0.0915452  0.160417 255   0   0
 0.114678 0.0906598  0.209799 255   0   0
 0.114978 0.0909127  0.194281 255   0   0
 0.115133 0.0908246  0.179912 255   0   0
 0.115182 0.0903331  0.173097 255   0   0
 0.114142 0.0901137  0.166669 255   0   0
 0.116008 0.0901697  0.161204 255   0   0
0.115752 0.090019  0.15568 255   0   0
 0.115342 0.0900417  0.150538 255   0   0
 0.104906 0.0915888  0.160352 255   0   0
 0.115694 0.0898477  0.145608 255   0   0
 0.115342 0.0899991  0.141275 255   0   0
 0.114734 0.0900092  0.137501 255   0   0
 0.114156 0.0899421    0.1344 255   0   0
 0.113544 0.0899247   0.13186 255   0   0
 0.112977 0.0898311  0.129765 255   0   0
 0.112499 0.0896972  0.128078 255   0   0
 0.112078 0.0894739  0.126802 255   0   0
 0.111783 0.0893643   0.12595 255   0   0
 0.111705 0.0891724  0.125546 255   0   0
 0.104907 0.0916468  0.160307 255   0   0
 0.111652 0.0888797  0.125638 255   0   0
 0.111597 0.0885767  0.126276 255   0   0
 0.111425 0.0884744   0.12752 255   0   0
 0.110672 0.0885329  0.129167 255   0   0
 0.155918 0.0745581    0.1896 255   0   0
 0.155935 0.0747332  0.188982 255   0   0
0.110547 0.087866 0.131427 255   0   0
 0.155729 0.0746211  0.188484 255   0   0
 0.155529 0.0739284  0.187939 255   0   0
   0.1559 0.0730689  0.187072 255   0   0
  0.15603 0.0743301  0.186472 255   0   0
 0.156521 0.0743571  0.185644 255   0   0
 0.156653 0.0746235  0.184991 255   0   0
 0.156851 0.0748285  0.184356 255   0   0
 0.156878 0.0745533  0.183882 255   0   0
 0.156909 0.0744333  0.183491 255   0   0
 0.110338 0.0874078  0.133948 255   0   0
 0.155093 0.0734443  0.181571 255   0   0
 0.154463 0.0731416  0.181002 255   0   0
 0.154095 0.0727187  0.180246 255   0   0
 0.153502 0.0722972  0.179544 255   0   0
 0.110304 0.0870568  0.137017 255   0   0
  0.15112 0.0694342  0.177665 255   0   0
  0.15149 0.0695674  0.177049 255   0   0
 0.110414 0.0866904  0.140379 255   0   0
0.140774 0.073715 0.167209 255   0   0
 0.137644 0.0760998  0.164126 255   0   0
 0.110246 0.0865669  0.143781 255   0   0
 0.137431 0.0760465  0.163687 255   0   0
 0.135898 0.0769287  0.161489 255   0   0
 0.134655 0.0771653  0.161652 255   0   0
0.110081 0.086484 0.147497 255   0   0
 0.104941 0.0916988  0.160263 255   0   0
 0.110244 0.0864165  0.151428 255   0   0
 0.171806 0.0782567  0.184988 255   0   0
 0.169328 0.0776234  0.186804 255   0   0
 0.168514 0.0797012  0.188051 255   0   0
 0.174352 0.0775161  0.186609 255   0   0
 0.172646 0.0776729  0.187367 255   0   0
 0.110102 0.0862318  0.155529 255   0   0
 0.109764 0.0863232  0.159458 255   0   0
 0.110268 0.0865973  0.163629 255   0   0
0.121742 0.076295 0.164219 255   0   0
 0.121287 0.0764247  0.164703 255   0   0
0.121546 0.075902 0.164338 255   0   0
0.109989 0.086836 0.167428 255   0   0
 0.110203 0.0869504  0.171245 255   0   0
 0.110398 0.0871401  0.174853 255   0   0
 0.165843 0.0766888  0.181784 255   0   0
 0.110818 0.0869739   0.17832 255   0   0
  0.11049 0.0868864   0.18188 255   0   0
  0.15068 0.0799419  0.153366 255   0   0
 0.150372 0.0796669   0.15323 255   0   0
 0.150479 0.0796986  0.153066 255   0   0
 0.150875 0.0797058  0.152924 255   0   0
 0.151474 0.0795478  0.152818 255   0   0
 0.151888 0.0794742  0.152801 255   0   0
 0.111065 0.0867052  0.185301 255   0   0
 0.104981 0.0916943  0.160229 255   0   0
 0.152224 0.0793545  0.152771 255   0   0
 0.152413 0.0792299  0.152729 255   0   0
 0.152447 0.0791454  0.152683 255   0   0
 0.152391 0.0790739  0.152657 255   0   0
 0.152381 0.0789649  0.152659 255   0   0
 0.152371 0.0790097  0.152655 255   0   0
 0.152428 0.0794702  0.152629 255   0   0
 0.110981 0.0863693  0.188803 255   0   0
 0.149212 0.0818375  0.151692 255   0   0
 0.149245 0.0822735  0.151437 255   0   0
  0.14932 0.0827541  0.151227 255   0   0
 0.149665 0.0829971  0.150841 255   0   0
 0.150192 0.0828936  0.150116 255   0   0
 0.111141 0.0862473  0.192138 255   0   0
 0.111564 0.0863635  0.195341 255   0   0
  0.14158 0.0610803  0.161068 255   0   0
 0.143058 0.0580934  0.160944 255   0   0
 0.141576 0.0590461  0.162093 255   0   0
0.140979 0.057466 0.163157 255   0   0
 0.111681 0.0861939  0.198449 255   0   0
 0.111754 0.0858896  0.201639 255   0   0
 0.111598 0.0863352  0.205006 255   0   0
  0.15051 0.0907203  0.165844 255   0   0
 0.151039 0.0916291  0.165645 255   0   0
 0.151246 0.0922099  0.165394 255   0   0
0.110975  0.08594 0.211673 255   0   0
 0.139017 0.0780551  0.170665 255   0   0
   0.1394 0.0769857  0.171241 255   0   0
 0.137385 0.0782626  0.172755 255   0   0
 0.104959 0.0917467   0.16021 255   0   0
 0.110624 0.0861807  0.222982 255   0   0
0.110468 0.086691 0.227392 255   0   0
 0.145032 0.0755979  0.159467 255   0   0
 0.145143 0.0758623  0.159298 255   0   0
 0.145265 0.0758772   0.15931 255   0   0
 0.145352 0.0757954  0.159324 255   0   0
0.145531  0.07548 0.159287 255   0   0
 0.145901 0.0749444  0.159076 255   0   0
   0.1463 0.0742914  0.159111 255   0   0
 0.146241 0.0743364  0.159287 255   0   0
 0.146711 0.0737636   0.15953 255   0   0
 0.146207 0.0735274   0.16001 255   0   0
0.146319 0.073082 0.159986 255   0   0
 0.146061 0.0726212  0.160307 255   0   0
 0.146399 0.0718242  0.160077 255   0   0
 0.146726 0.0713155  0.160279 255   0   0
 0.147377 0.0707468   0.16054 255   0   0
 0.147462 0.0701771   0.16104 255   0   0
  0.14754 0.0703565  0.161088 255   0   0
 0.148041 0.0699149  0.161012 255   0   0
0.148332 0.069451 0.161274 255   0   0
 0.108319 0.0917617  0.116513 255   0   0
 0.127155 0.0439594  0.197492 255   0   0
 0.130459 0.0439812  0.194936 255   0   0
  0.10799 0.0919206  0.119879 255   0   0
0.108214 0.092008 0.124298 255   0   0
 0.130637 0.0906083  0.177824 255   0   0
  0.13085 0.0898809  0.177762 255   0   0
 0.108352 0.0917613   0.12899 255   0   0
 0.108245 0.0916275  0.133891 255   0   0
 0.108303 0.0913538    0.1392 255   0   0
 0.130491 0.0443875  0.195039 255   0   0
 0.126027 0.0442868  0.198483 255   0   0
0.108355 0.090924 0.144541 255   0   0
  0.10501 0.0917137  0.159871 255   0   0
 0.108518 0.0905651  0.149953 255   0   0
  0.10963 0.0882833  0.155607 255   0   0
 0.129997 0.0963996  0.178522 255   0   0
 0.130461 0.0963121   0.17818 255   0   0
0.108698 0.089874 0.160652 255   0   0
0.109331  0.08955 0.166138 255   0   0
 0.109637 0.0894363  0.171296 255   0   0
 0.126398 0.0517863  0.195002 255   0   0
 0.110219 0.0892653  0.176256 255   0   0
0.111292 0.089438 0.180728 255   0   0
 0.122804 0.0713108  0.176744 255   0   0
 0.122893 0.0714762  0.176502 255   0   0
 0.110747 0.0893939  0.185888 255   0   0
 0.122292 0.0628874  0.180079 255   0   0
 0.122045 0.0633264   0.18056 255   0   0
 0.110924 0.0887526  0.190591 255   0   0
 0.110986 0.0893905  0.195423 255   0   0
0.105009 0.091738 0.159836 255   0   0
 0.110922 0.0881235  0.199547 255   0   0
 0.160328 0.0670531  0.177221 255   0   0
 0.111172 0.0882813  0.204533 255   0   0
 0.111801 0.0875543  0.208851 255   0   0
 0.113094 0.0719354  0.190888 255   0   0
 0.111718 0.0722935  0.190858 255   0   0
 0.11229 0.085934 0.213226 255   0   0
 0.111269 0.0861398   0.21751 255   0   0
 0.112829 0.0862604  0.221562 255   0   0
 0.150295 0.0708489  0.185896 255   0   0
 0.113652 0.0857048  0.225536 255   0   0
 0.113725 0.0859193   0.22971 255   0   0
 0.120789 0.0688041  0.190929 255   0   0
 0.105032 0.0917712  0.159821 255   0   0
 0.114587 0.0854347  0.240795 255   0   0
0.125017 0.076259 0.182123 255   0   0
 0.124892 0.0763879  0.182489 255   0   0
 0.125472 0.0763301  0.182708 255   0   0
 0.125939 0.0764691  0.182894 255   0   0
 0.125937 0.0765782  0.183209 255   0   0
 0.126384 0.0765612  0.183263 255   0   0
 0.126516 0.0763662  0.183271 255   0   0
 0.127328 0.0760734  0.182911 255   0   0
 0.128208 0.0758618  0.182476 255   0   0
 0.129288 0.0761415  0.182071 255   0   0
 0.130197 0.0765341  0.181687 255   0   0
 0.131006 0.0768354  0.181322 255   0   0
 0.131502 0.0768734   0.18113 255   0   0
 0.131959 0.0771027  0.181083 255   0   0
 0.132291 0.0771688  0.181136 255   0   0
 0.115639 0.0855969  0.247694 255   0   0
0.132311 0.077077 0.181301 255   0   0
 0.115529 0.0858494  0.251134 255   0   0
 0.123766 0.0717581  0.186878 255   0   0
0.120283 0.074494 0.185123 255   0   0
 0.12167 0.075633 0.185956 255   0   0
 0.121735 0.0744634   0.18538 255   0   0
 0.116889 0.0862507  0.254084 255   0   0
 0.122341 0.0751374  0.185312 255   0   0
0.122602 0.075347 0.185085 255   0   0
 0.122431 0.0757171  0.184868 255   0   0
  0.12254 0.0755815  0.184511 255   0   0
 0.122634 0.0755976  0.184132 255   0   0
 0.122952 0.0761135  0.183613 255   0   0
 0.121624 0.0747514  0.183702 255   0   0
 0.115119 0.0836857  0.258271 255   0   0
 0.115682 0.0763023  0.184003 255   0   0
 0.114676 0.0743014  0.183821 255   0   0
 0.116672 0.0779365  0.184811 255   0   0
 0.116213 0.0697463  0.183082 255   0   0
0.117266 0.071819 0.183312 255   0   0
0.116891 0.085155 0.261359 255   0   0
0.120693  0.07489 0.183612 255   0   0
 0.125251 0.0767958  0.183912 255   0   0
 0.129139 0.0759767  0.182751 255   0   0
 0.128503 0.0773353  0.183265 255   0   0
 0.129305 0.0784277  0.183746 255   0   0
  0.11673 0.0860801  0.264916 255   0   0
 0.130694 0.0752769   0.18581 255   0   0
 0.129185 0.0754424  0.186157 255   0   0
 0.128814 0.0757469  0.186369 255   0   0
 0.127247 0.0752106  0.185553 255   0   0
 0.127759 0.0762569  0.186672 255   0   0
 0.129608 0.0748884  0.186237 255   0   0
 0.127647 0.0744549  0.186598 255   0   0
 0.129634 0.0730694  0.185381 255   0   0
 0.117165 0.0847881  0.268606 255   0   0
 0.127798 0.0687208   0.18726 255   0   0
 0.120576 0.0738404  0.188837 255   0   0
 0.118919 0.0712394  0.189072 255   0   0
  0.11928 0.0708406  0.189148 255   0   0
 0.118919 0.0829785  0.272093 255   0   0
 0.105044 0.0917314  0.159817 255   0   0
 0.104996 0.0920519  0.159997 255   0   0
 0.114107 0.0745802  0.189309 255   0   0
 0.116707 0.0726761  0.189252 255   0   0
0.117236 0.074767 0.189035 255   0   0
 0.117935 0.0737982  0.188572 255   0   0
 0.117653 0.0745434  0.187329 255   0   0
 0.118604 0.0740772  0.187108 255   0   0
 0.118319 0.0750337  0.186238 255   0   0
 0.119128 0.0753858  0.186391 255   0   0
  0.11932 0.0751305  0.185842 255   0   0
 0.119344 0.0760965  0.185877 255   0   0
 0.117518 0.0843156  0.275948 255   0   0
 0.119005 0.0764139  0.185656 255   0   0
 0.119102 0.0764152  0.185248 255   0   0
 0.120091 0.0767423   0.18443 255   0   0
 0.120576 0.0774076  0.183744 255   0   0
 0.123372 0.0775547  0.181632 255   0   0
0.123168 0.077916 0.181655 255   0   0
 0.123821 0.0755828  0.182423 255   0   0
 0.121595 0.0765196  0.181326 255   0   0
 0.117448 0.0844224  0.279715 255   0   0
 0.126457 0.0694543  0.182514 255   0   0
 0.120767 0.0745357  0.182312 255   0   0
0.129188 0.068859 0.184816 255   0   0
 0.135347 0.0676768  0.183682 255   0   0
  0.17348 0.0697122   0.16585 255   0   0
0.173782 0.069694 0.165649 255   0   0
 0.174409 0.0696902  0.165393 255   0   0
  0.17479 0.0695519  0.165169 255   0   0
 0.175229 0.0696065  0.164925 255   0   0
 0.116377 0.0837955  0.317699 255   0   0
 0.175428 0.0696416  0.164658 255   0   0
 0.175544 0.0696092  0.164345 255   0   0
 0.175443 0.0696833  0.164001 255   0   0
 0.175099 0.0696396  0.163625 255   0   0
0.174607 0.069751 0.163189 255   0   0
 0.173885 0.0698093  0.162761 255   0   0
 0.173103 0.0699201  0.162298 255   0   0
 0.172113 0.0700418  0.161876 255   0   0
 0.171008 0.0702571  0.161644 255   0   0
 0.169853 0.0702666  0.160957 255   0   0
 0.168204 0.0697916  0.160745 255   0   0
0.0513432 0.0741022  0.167216 255   0   0
0.0495847 0.0747266  0.166601 255   0   0
0.0488353 0.0746685  0.165982 255   0   0
0.0487312 0.0746752  0.165617 255   0   0
0.0490478 0.0745572   0.16545 255   0   0
0.0497039 0.0741293   0.16542 255   0   0
 0.212488 0.0692724  0.150847 255   0   0
  0.21345 0.0688049  0.150431 255   0   0
 0.213309 0.0691096  0.150199 255   0   0
 0.212326 0.0694289  0.150202 255   0   0
 0.105032 0.0917059  0.159891 255   0   0
0.0355007 0.0776842  0.162536 255   0   0
0.0355582 0.0777103  0.161851 255   0   0
 0.218657 0.0636377  0.174772 255   0   0
 0.218407 0.0637927  0.174663 255   0   0
 0.116864 0.0749753  0.296774 255   0   0
 0.111333 0.0834942  0.294401 255   0   0
 0.111147 0.0830981  0.290987 255   0   0
-0.00634225   0.0774527    0.177104 255   0   0
-0.00841074    0.076587    0.175925 255   0   0
-0.00792584   0.0764797    0.175494 255   0   0
-0.00701115   0.0762107    0.174874 255   0   0
-0.00592808   0.0762185    0.174058 255   0   0
-0.00370106   0.0761637    0.173317 255   0   0
 0.104898 0.0916968  0.159936 255   0   0
 0.157668 0.0776666   0.19526 255   0   0
 0.218214 0.0637729  0.174878 255   0   0
 0.111978 0.0815951  0.300726 255   0   0
 0.104982 0.0916682  0.159934 255   0   0
0.0408649  0.075865  0.173996 255   0   0
0.0403152 0.0757938  0.174162 255   0   0
0.0400788 0.0759992  0.174595 255   0   0
0.0399774 0.0756766  0.175031 255   0   0
0.0413844 0.0779262  0.176359 255   0   0
 0.113157 0.0814933  0.312986 255   0   0
 0.221955 0.0642661  0.163178 255   0   0
 0.222741 0.0642908  0.163438 255   0   0
 0.222663 0.0641314    0.1637 255   0   0
 0.222065 0.0643272   0.16401 255   0   0
0.0379338 0.0777099  0.160107 255   0   0
0.0365611 0.0777293   0.16053 255   0   0
0.0357713 0.0777828  0.161173 255   0   0
 0.172867 0.0696285   0.16613 255   0   0
 0.172395 0.0695682   0.16643 255   0   0
  0.17182 0.0694578  0.166779 255   0   0
 0.170608 0.0693774  0.167145 255   0   0
 0.170752 0.0692645  0.167452 255   0   0
 0.105015 0.0917358  0.159854 255   0   0
 0.169506 0.0690652  0.167815 255   0   0
 0.169364 0.0692911  0.168233 255   0   0
 0.168992 0.0692664  0.168584 255   0   0
 0.168501 0.0692821  0.168952 255   0   0
 0.168068 0.0694416  0.169297 255   0   0
  0.16759 0.0694673    0.1697 255   0   0
 0.167049 0.0696294  0.170157 255   0   0
 0.166021 0.0696921  0.170621 255   0   0
 0.165943 0.0698084  0.171018 255   0   0
 0.165294 0.0698482  0.171431 255   0   0
 0.164982 0.0699905  0.171735 255   0   0
 0.164431 0.0698969  0.172096 255   0   0
 0.164005 0.0701125  0.172483 255   0   0
 0.163439 0.0699361  0.172785 255   0   0
 0.162944 0.0699363  0.173129 255   0   0
 0.162515 0.0701775  0.173456 255   0   0
 0.161964 0.0701509  0.173758 255   0   0
 0.161401 0.0701937  0.174048 255   0   0
   0.1609 0.0703588  0.174294 255   0   0
 0.160327 0.0703839  0.174562 255   0   0
 0.159712 0.0702795  0.174835 255   0   0
 0.159065 0.0702917  0.175164 255   0   0
  0.15867 0.0703721   0.17543 255   0   0
 0.158004 0.0702769  0.175709 255   0   0
 0.157624 0.0703007  0.176004 255   0   0
 0.157058 0.0702329  0.176302 255   0   0
  0.15654 0.0702307  0.176592 255   0   0
 0.155912 0.0699723  0.176846 255   0   0
 0.155467 0.0700347  0.177068 255   0   0
 0.154979 0.0700593  0.177301 255   0   0
 0.154531 0.0700212  0.177487 255   0   0
 0.154062 0.0699911  0.177637 255   0   0
 0.153598 0.0699864  0.177753 255   0   0
 0.153006 0.0699243  0.177863 255   0   0
0.152418 0.069809 0.177958 255   0   0
 0.151839 0.0696787  0.177998 255   0   0
 0.150729 0.0695738  0.177993 255   0   0
 0.150775 0.0693287  0.178344 255   0   0
0.149329 0.069141 0.178121 255   0   0
 0.148832 0.0685366  0.178231 255   0   0
 0.117367 0.0858114    0.2966 255   0   0
 0.148054 0.0676613  0.178295 255   0   0
0.150256 0.067291 0.179003 255   0   0
 0.152093 0.0662814  0.177831 255   0   0
 0.151999 0.0670107  0.177826 255   0   0
 0.151399 0.0642773  0.178761 255   0   0
 0.150305 0.0648426  0.179033 255   0   0
 0.150043 0.0672171   0.17908 255   0   0
 0.150099 0.0670337  0.179532 255   0   0
 0.151026 0.0666522  0.179386 255   0   0
 0.151168 0.0668844  0.179557 255   0   0
 0.150997 0.0673883  0.179978 255   0   0
 0.150795 0.0675668  0.180449 255   0   0
 0.150489 0.0677066  0.180968 255   0   0
 0.149837 0.0682009   0.18178 255   0   0
 0.148987 0.0686051  0.182087 255   0   0
 0.148544 0.0688813  0.182418 255   0   0
 0.147403 0.0692236  0.182637 255   0   0
 0.146477 0.0693067  0.182968 255   0   0
 0.144678 0.0685494  0.182993 255   0   0
 0.142261 0.0680396  0.182757 255   0   0
 0.140237 0.0689145  0.183506 255   0   0
 0.108185 0.0918335  0.113205 255   0   0
  0.10826 0.0917953  0.110468 255   0   0
  0.10825 0.0917834  0.108243 255   0   0
0.131897 0.083928 0.175489 255   0   0
0.131844 0.084015 0.175553 255   0   0
 0.131846 0.0838819   0.17559 255   0   0
0.132152 0.084442 0.175882 255   0   0
 0.131502 0.0833347  0.176118 255   0   0
 0.131328 0.0830479   0.17628 255   0   0
 0.104942 0.0918316  0.159935 255   0   0
 0.108336 0.0917402  0.106518 255   0   0
 0.130899 0.0821032  0.176577 255   0   0
 0.131162 0.0814354  0.176721 255   0   0
 0.131172 0.0811575   0.17671 255   0   0
 0.131168 0.0809927  0.176678 255   0   0
 0.131164 0.0808385  0.176613 255   0   0
 0.131166 0.0807094  0.176577 255   0   0
0.131103 0.080502 0.176544 255   0   0
 0.131061 0.0804835  0.176572 255   0   0
 0.108578 0.0917592  0.105261 255   0   0
 0.131009 0.0805655  0.176556 255   0   0
  0.13108 0.0796971  0.176617 255   0   0
 0.131149 0.0797843  0.176729 255   0   0
 0.131044 0.0824266  0.176475 255   0   0
  0.13128 0.0795087  0.177105 255   0   0
 0.108979 0.0916598  0.104745 255   0   0
 0.130331 0.0766623  0.178867 255   0   0
 0.131022 0.0755218  0.179148 255   0   0
 0.130948 0.0752446  0.179038 255   0   0
0.130933 0.075196 0.178916 255   0   0
 0.109343 0.0915424   0.10504 255   0   0
 0.130788 0.0746321  0.178825 255   0   0
 0.130853 0.0742578  0.178628 255   0   0
 0.131147 0.0738339  0.178529 255   0   0
0.131167 0.073532 0.178501 255   0   0
 0.131182 0.0732363  0.178477 255   0   0
 0.131924 0.0737452  0.178076 255   0   0
 0.131411 0.0730674  0.178173 255   0   0
 0.131874 0.0731402  0.178018 255   0   0
 0.109709 0.0914458   0.10617 255   0   0
 0.132369 0.0730049  0.177826 255   0   0
 0.134074 0.0748051  0.177121 255   0   0
  0.13272 0.0746921  0.177784 255   0   0
 0.132956 0.0748558  0.178032 255   0   0
 0.132245 0.0749186  0.178348 255   0   0
 0.131656 0.0749813  0.178646 255   0   0
 0.131938 0.0746573  0.179036 255   0   0
  0.10995 0.0913654  0.108216 255   0   0
 0.132256 0.0746963  0.179472 255   0   0
 0.132591 0.0745351  0.179694 255   0   0
 0.132848 0.0744947   0.17973 255   0   0
 0.132941 0.0746247  0.179774 255   0   0
 0.133023 0.0746669  0.179737 255   0   0
 0.133026 0.0750438  0.179718 255   0   0
 0.132835 0.0752453  0.179817 255   0   0
 0.133156 0.0752125  0.179643 255   0   0
 0.132379 0.0755753   0.18023 255   0   0
 0.132314 0.0753862  0.180459 255   0   0
 0.110293 0.0913223  0.110769 255   0   0
 0.131466 0.0750721  0.180964 255   0   0
0.131496 0.075277 0.181313 255   0   0
 0.131282 0.0748496   0.18179 255   0   0
 0.130115 0.0745358  0.182078 255   0   0
 0.128796 0.0740655  0.182007 255   0   0
 0.110532 0.0914639  0.114015 255   0   0
 0.129762 0.0651701  0.184997 255   0   0
 0.130873 0.0628324  0.184349 255   0   0
 0.131127 0.0634498  0.184432 255   0   0
0.110582 0.091548  0.11776 255   0   0
 0.130571 0.0667619  0.186287 255   0   0
 0.110739 0.0915982  0.121982 255   0   0
 0.136294 0.0767329  0.188712 255   0   0
 0.13551 0.077259 0.189994 255   0   0
 0.134101 0.0772756  0.190886 255   0   0
 0.133818 0.0766969  0.191366 255   0   0
 0.133353 0.0764887  0.191931 255   0   0
 0.133024 0.0760948  0.192634 255   0   0
 0.104938 0.0918565  0.159985 255   0   0
 0.111006 0.0910061  0.126621 255   0   0
 0.132133 0.0760046  0.193248 255   0   0
 0.132283 0.0750846  0.196412 255   0   0
 0.133561 0.0742089  0.198999 255   0   0
0.135052 0.074301 0.199048 255   0   0
 0.110522 0.0910262  0.131535 255   0   0
 0.134259 0.0806186  0.198143 255   0   0
 0.134011 0.0804091  0.197446 255   0   0
  0.13497 0.0805335  0.196964 255   0   0
0.135938 0.080747 0.196722 255   0   0
 0.109963 0.0909019  0.136705 255   0   0
 0.137805 0.0827426   0.19654 255   0   0
 0.138967 0.0840111  0.195798 255   0   0
 0.139513 0.0855306  0.194632 255   0   0
 0.139449 0.0868338  0.193656 255   0   0
  0.14125 0.0916886  0.190421 255   0   0
 0.140049 0.0923828  0.190625 255   0   0
 0.139802 0.0933163  0.190029 255   0   0
 0.140749 0.0937032  0.189049 255   0   0
 0.109753 0.0910444  0.142459 255   0   0
 0.140877 0.0945601  0.188072 255   0   0
 0.140663 0.0958618  0.187302 255   0   0
 0.140086 0.0966153  0.187259 255   0   0
 0.139233 0.0968408  0.187606 255   0   0
 0.139283 0.0970238  0.187568 255   0   0
  0.13949 0.0973725  0.187689 255   0   0
 0.139749 0.0977005   0.18791 255   0   0
0.140061 0.098113 0.188839 255   0   0
 0.109787 0.0905788  0.148586 255   0   0
 0.14009 0.098427 0.188732 255   0   0
 0.139302 0.0991544  0.188612 255   0   0
 0.140605 0.0985703  0.188275 255   0   0
 0.109941 0.0909222  0.154582 255   0   0
 0.110688 0.0905982  0.160687 255   0   0
  0.131621 -0.0238392   0.192527 255   0   0
  0.131378 -0.0246588   0.192181 255   0   0
 0.110483 0.0901426  0.167062 255   0   0
  0.130816 -0.0236471   0.192723 255   0   0
 0.109859 0.0906435  0.173918 255   0   0
 0.109863 0.0901998    0.1804 255   0   0
 0.104937 0.0919406  0.160036 255   0   0
 0.110398 0.0902305  0.187098 255   0   0
 0.14985 0.178938 0.187427 255   0   0
0.149333 0.178796 0.187173 255   0   0
 0.111965 0.0877087  0.199715 255   0   0
 0.112616 0.0872645  0.205974 255   0   0
 0.112317 0.0876872  0.212648 255   0   0
   0.14097 -0.0154964    0.19187 255   0   0
   0.14118 -0.0153074   0.192154 255   0   0
 0.112844 0.0859115  0.219281 255   0   0
 0.143099 0.0884996  0.185188 255   0   0
 0.142196 0.0895362   0.18586 255   0   0
 0.142206 0.0903577  0.186027 255   0   0
 0.142248 0.0910844  0.186128 255   0   0
 0.142056 0.0917805  0.186257 255   0   0
  0.14192 0.0919905  0.186249 255   0   0
 0.141878 0.0920159  0.186068 255   0   0
 0.141658 0.0917931  0.185767 255   0   0
 0.141151 0.0917378  0.185479 255   0   0
 0.139531 0.0915935  0.185309 255   0   0
 0.138752 0.0909252  0.184376 255   0   0
  0.13821 0.0896972  0.183177 255   0   0
0.0334757 0.0889103  0.190512 255   0   0
0.0329721   0.09004  0.192081 255   0   0
0.0333225 0.0876327  0.193146 255   0   0
0.0314433 0.0856796  0.193526 255   0   0
 0.104912 0.0919066  0.160085 255   0   0
 0.227396 0.0723509  0.183091 255   0   0
 0.114195 0.0859007   0.27517 255   0   0
 0.227958 0.0716862  0.182631 255   0   0
 0.227697 0.0714104  0.182445 255   0   0
0.0368869 0.0892646  0.187612 255   0   0
0.0363968 0.0891943  0.188019 255   0   0
0.0362211 0.0890945   0.18847 255   0   0
 0.146353 0.0744968  0.170063 255   0   0
0.148639  0.07445 0.169564 255   0   0
0.149305 0.074101 0.169116 255   0   0
 0.149715 0.0735635  0.168841 255   0   0
 0.150136 0.0733361  0.168627 255   0   0
 0.150291 0.0730933  0.168495 255   0   0
 0.150414 0.0728913  0.168418 255   0   0
 0.150585 0.0727888  0.168326 255   0   0
 0.150673 0.0726384  0.168203 255   0   0
 0.150791 0.0725957  0.168102 255   0   0
 0.150956 0.0725521  0.167952 255   0   0
 0.151028 0.0724786  0.167845 255   0   0
 0.151266 0.0725036  0.167678 255   0   0
 0.151493 0.0724998  0.167479 255   0   0
 0.151781 0.0725981  0.167244 255   0   0
 0.151978 0.0726015  0.167001 255   0   0
 0.104937 0.0918424  0.160148 255   0   0
 0.152147 0.0726328  0.166782 255   0   0
  0.15226 0.0727152  0.166615 255   0   0
 0.152424 0.0727139  0.166469 255   0   0
 0.152515 0.0727905  0.166382 255   0   0
 0.152658 0.0728099  0.166313 255   0   0
  0.15271 0.0728429  0.166251 255   0   0
 0.152618 0.0728131  0.166232 255   0   0
 0.152514 0.0728358  0.166215 255   0   0
 0.152467 0.0728336  0.166201 255   0   0
 0.152272 0.0728587  0.166233 255   0   0
 0.152168 0.0727709  0.166225 255   0   0
 0.152039 0.0727467  0.166251 255   0   0
 0.151935 0.0726927  0.166268 255   0   0
 0.151697 0.0727162  0.166338 255   0   0
 0.151511 0.0726255  0.166429 255   0   0
 0.151296 0.0725211  0.166545 255   0   0
 0.151167 0.0725344  0.166683 255   0   0
 0.151058 0.0725662  0.166761 255   0   0
 0.150918 0.0723918  0.166783 255   0   0
 0.150781 0.0724085  0.166855 255   0   0
  0.15072 0.0724231  0.166921 255   0   0
  0.15065 0.0724788  0.167046 255   0   0
 0.150495 0.0724571    0.1672 255   0   0
0.150425 0.072507 0.167588 255   0   0
 0.150531 0.0723098  0.168149 255   0   0
 0.150685 0.0722507  0.169205 255   0   0
 0.151422 0.0720712   0.17056 255   0   0
 0.151957 0.0715076  0.173036 255   0   0
 0.151955 0.0713389  0.176989 255   0   0
 0.152142 0.0710358  0.181843 255   0   0
0.143654 0.080314 0.280358 255   0   0
 0.145216 0.0819404  0.202704 255   0   0
 0.148336 0.0838291  0.177694 255   0   0
 0.148588 0.0833574  0.170951 255   0   0
 0.149026 0.0836045  0.165837 255   0   0
 0.149519 0.0831909  0.162028 255   0   0
0.149397 0.083049 0.159338 255   0   0
 0.14882  0.08293 0.157787 255   0   0
 0.148484 0.0826238  0.157136 255   0   0
 0.148178 0.0823141   0.15743 255   0   0
 0.147153 0.0820683  0.158592 255   0   0
 0.146958 0.0814794  0.160711 255   0   0
 0.146875 0.0808072  0.163664 255   0   0
 0.146798 0.0802465  0.167407 255   0   0
 0.146449 0.0794237  0.171429 255   0   0
 0.146391 0.0789267  0.176214 255   0   0
 0.146363 0.0784296   0.18154 255   0   0
 0.146069 0.0775651  0.187634 255   0   0
  0.11115 0.0818919  0.315912 255   0   0
 0.104908 0.0917446  0.160191 255   0   0
-0.0113969 -0.0384439   0.257502 255   0   0
 0.153686 0.0798867  0.203348 255   0   0
 0.153803 0.0797713  0.200431 255   0   0
 0.110665 0.0821373  0.292987 255   0   0
 0.153345 0.0798184  0.197746 255   0   0
 0.153384 0.0799556  0.195289 255   0   0
 0.153437 0.0799226  0.192965 255   0   0
 0.154045 0.0799897  0.190866 255   0   0
0.153875 0.079934 0.188967 255   0   0
 0.153954 0.0798082  0.187023 255   0   0
 0.152875 0.0781124   0.18089 255   0   0
 0.153152 0.0779129  0.179474 255   0   0
 0.152745 0.0778815   0.17805 255   0   0
 0.151587 0.0790099  0.176792 255   0   0
 0.146867 0.0735599  0.169992 255   0   0
 0.147231 0.0800514  0.166212 255   0   0
 0.143583 0.0839797  0.166681 255   0   0
0.143264 0.086094 0.165778 255   0   0
 0.142058 0.0867525  0.166352 255   0   0
 0.141813 0.0863087  0.166581 255   0   0
 0.141017 0.0869102    0.1666 255   0   0
  0.13973 0.0883416  0.166645 255   0   0
 0.138162 0.0901402  0.166633 255   0   0
 0.138224 0.0891852  0.166974 255   0   0
0.136554 0.089792 0.167419 255   0   0
 0.136147 0.0894885   0.16766 255   0   0
 0.135866 0.0893519  0.167967 255   0   0
 0.13582 0.089492 0.168335 255   0   0
 0.135745 0.0893665  0.168572 255   0   0
  0.13528 0.0893773  0.168788 255   0   0
 0.135029 0.0893562  0.168927 255   0   0
 0.134868 0.0891117  0.168971 255   0   0
 0.135219 0.0888038  0.168667 255   0   0
 0.135521 0.0879396  0.168458 255   0   0
   0.1357 0.0874903  0.168116 255   0   0
 0.136225 0.0852831  0.168423 255   0   0
 0.135722 0.0842087  0.169012 255   0   0
 0.136399 0.0851565  0.168164 255   0   0
 0.139569 0.0827855  0.167011 255   0   0
 0.155946 0.0688972  0.162076 255   0   0
 0.105015 0.0919135  0.159931 255   0   0
 0.104945 0.0917482   0.16022 255   0   0
 0.156116 0.0691933  0.161729 255   0   0
 0.155305 0.0688966   0.16212 255   0   0
 0.155253 0.0687851  0.162253 255   0   0
 0.156677 0.0677631  0.161836 255   0   0
 0.158192 0.0618419  0.162815 255   0   0
 0.156506 0.0666369  0.162115 255   0   0
 0.146791 0.0817291  0.161509 255   0   0
 0.108305 0.0862197  0.253867 255   0   0
  0.13704 0.0924512  0.164612 255   0   0
 0.138104 0.0924679  0.164928 255   0   0
 0.138371 0.0924245   0.16494 255   0   0
 0.138595 0.0873824   0.16375 255   0   0
 0.136285 0.0868585  0.163316 255   0   0
 0.137555 0.0855321  0.163933 255   0   0
 0.109798 0.0857642  0.245014 255   0   0
 0.137547 0.0855329  0.163925 255   0   0
 0.137889 0.0853842  0.163529 255   0   0
 0.148821 0.0726292  0.161881 255   0   0
 0.149467 0.0716623  0.161497 255   0   0
0.149727 0.070774 0.161266 255   0   0
 0.149479 0.0703857  0.161522 255   0   0
 0.149204 0.0699929  0.161684 255   0   0
0.147992 0.069495 0.161546 255   0   0
