ply
format ascii 1.0
element vertex 719
property float x
property float y
property float z
property uchar red
property uchar green
property uchar blue
end_header
 0.156735 0.0756153   0.18974   0 255   0
 0.156194 0.0753679  0.189136   0 255   0
 0.155803 0.0753768  0.188543   0 255   0
0.155354 0.075597 0.188061   0 255   0
 0.154413 0.0764592   0.18736   0 255   0
 0.154249 0.0770012  0.186972   0 255   0
 0.154431 0.0775626  0.186457   0 255   0
 0.154851 0.0780923  0.185814   0 255   0
 0.155269 0.0785139  0.185119   0 255   0
 0.155461 0.0787659  0.184473   0 255   0
0.155359 0.078825 0.183956   0 255   0
 0.152473 0.0751309  0.182645   0 255   0
 0.151649 0.0740704  0.182169   0 255   0
 0.150832 0.0734152  0.181566   0 255   0
 0.150064 0.0732376  0.180873   0 255   0
 0.147967 0.0743937  0.178624   0 255   0
 0.147211 0.0748434  0.177906   0 255   0
 0.137846 0.0759458  0.167584   0 255   0
 0.136102 0.0772979  0.163171   0 255   0
 0.136569 0.0773439  0.162805   0 255   0
 0.141164 0.0774949  0.161717   0 255   0
 0.142133 0.0774917  0.161669   0 255   0
 0.147967 0.0791798  0.188012   0 255   0
 0.148113 0.0790757  0.189112   0 255   0
 0.147981 0.0789616  0.189665   0 255   0
  0.14628 0.0789804  0.189891   0 255   0
 0.145257 0.0790362  0.189948   0 255   0
 0.130381 0.0767387  0.164316   0 255   0
 0.130104 0.0767057   0.16434   0 255   0
 0.130127 0.0766334  0.164419   0 255   0
 0.142041 0.0785656  0.181503   0 255   0
 0.152814 0.0792035  0.155213   0 255   0
 0.152597 0.0793487  0.154107   0 255   0
 0.152258 0.0794743   0.15331   0 255   0
 0.151929 0.0795849  0.152812   0 255   0
0.151717 0.079701 0.152567   0 255   0
 0.151646 0.0798485   0.15251   0 255   0
 0.151625 0.0800457  0.152573   0 255   0
 0.151503 0.0802937  0.152693   0 255   0
 0.151166 0.0805684  0.152825   0 255   0
 0.150612 0.0808192  0.152945   0 255   0
 0.149948 0.0809848  0.153047   0 255   0
 0.149333 0.0810197  0.153138   0 255   0
 0.148839 0.0784827  0.151746   0 255   0
 0.149015 0.0778763  0.151287   0 255   0
   0.1491 0.0770435  0.150919   0 255   0
 0.148975 0.0759493  0.150707   0 255   0
 0.148625 0.0746745  0.150737   0 255   0
 0.141564 0.0736721  0.163003   0 255   0
 0.141751 0.0738427  0.163782   0 255   0
 0.141647 0.0741827   0.16492   0 255   0
  0.14129 0.0746822  0.166337   0 255   0
  0.14761 0.0788488  0.165928   0 255   0
 0.147802 0.0787281  0.165599   0 255   0
 0.147872 0.0785304  0.165591   0 255   0
 0.139062 0.0983508  0.172164   0 255   0
 0.139327 0.0977961   0.17221   0 255   0
 0.143879 0.0720009  0.160105   0 255   0
 0.144287 0.0724166  0.159548   0 255   0
 0.144699 0.0728373  0.159192   0 255   0
 0.145074 0.0732089   0.15902   0 255   0
 0.145373 0.0734752  0.159018   0 255   0
 0.145574 0.0736193  0.159146   0 255   0
 0.145674 0.0736751  0.159325   0 255   0
 0.145696 0.0736823  0.159492   0 255   0
  0.14569 0.0736377  0.159649   0 255   0
 0.145715 0.0735051  0.159847   0 255   0
  0.14582 0.0732772  0.160113   0 255   0
 0.146021 0.0730077  0.160416   0 255   0
 0.146599 0.0725494  0.160943   0 255   0
 0.146887 0.0723241    0.1612   0 255   0
 0.147102 0.0720566  0.161504   0 255   0
 0.147173 0.0717952  0.161833   0 255   0
 0.147029 0.0716295  0.162125   0 255   0
 0.146632 0.0716003  0.162351   0 255   0
 0.145996 0.0716571  0.162543   0 255   0
 0.143331 0.0717637  0.163151   0 255   0
 0.142431 0.0718067  0.163253   0 255   0
 0.141516 0.0718556  0.163275   0 255   0
 0.140526 0.0718775  0.163256   0 255   0
 0.139478 0.0718746  0.163255   0 255   0
 0.140643 0.0863011  0.163931   0 255   0
 0.140374 0.0881258  0.164145   0 255   0
 0.139727 0.0892886  0.164405   0 255   0
 0.138782 0.0898305  0.164629   0 255   0
 0.136742 0.0897243  0.164895   0 255   0
 0.136519 0.0876511  0.164456   0 255   0
 0.137621 0.0876982  0.164494   0 255   0
 0.138792 0.0878659  0.164623   0 255   0
 0.149205 0.0893615  0.169197   0 255   0
 0.149779 0.0752034  0.167805   0 255   0
 0.148688 0.0726257  0.165866   0 255   0
0.145281 0.071083 0.164569   0 255   0
 0.144795 0.0708121  0.164064   0 255   0
 0.144709 0.0706391  0.163615   0 255   0
 0.144637 0.0704936  0.163296   0 255   0
 0.139551 0.0788419   0.16725   0 255   0
 0.137395 0.0847675  0.168953   0 255   0
0.136765 0.086194  0.16924   0 255   0
 0.136266 0.0874473  0.169253   0 255   0
 0.135917 0.0885738  0.169058   0 255   0
0.135718 0.089539 0.168817   0 255   0
 0.135626 0.0902981  0.168662   0 255   0
 0.135575 0.0908422  0.168607   0 255   0
 0.135537 0.0911859  0.168585   0 255   0
 0.135751 0.0913402  0.168372   0 255   0
 0.136145 0.0911884  0.168127   0 255   0
 0.137302 0.0905592  0.167425   0 255   0
0.137867 0.090125 0.167068   0 255   0
 0.138782 0.0890893  0.166693   0 255   0
 0.139182 0.0885479  0.166742   0 255   0
 0.139596 0.0880584  0.166919   0 255   0
 0.140061 0.0876615  0.167169   0 255   0
 0.140597 0.0873706  0.167441   0 255   0
 0.141207 0.0871797  0.167715   0 255   0
 0.141869 0.0870805  0.168017   0 255   0
0.143869 0.087646 0.169589   0 255   0
 0.145811 0.0787981  0.177914   0 255   0
  0.14621 0.0786108  0.179028   0 255   0
 0.146823 0.0790165  0.180413   0 255   0
0.147526 0.079599 0.181991   0 255   0
 0.149684 0.0796483  0.188004   0 255   0
  0.14999 0.0796297  0.189532   0 255   0
  0.15018 0.0798669  0.191265   0 255   0
 0.150208 0.0802788  0.193208   0 255   0
 0.149847 0.0810575  0.197529   0 255   0
 0.149624 0.0812587  0.199828   0 255   0
 0.145281 0.0821188  0.188902   0 255   0
 0.145226 0.0824037  0.182665   0 255   0
 0.145197 0.0826679  0.177173   0 255   0
 0.145215 0.0829408   0.17241   0 255   0
 0.145298 0.0832349  0.168322   0 255   0
 0.145453 0.0835356  0.164861   0 255   0
 0.145674 0.0838053   0.16202   0 255   0
 0.146129 0.0840963   0.15844   0 255   0
 0.146221 0.0840938  0.157913   0 255   0
 0.146179 0.0840292  0.158303   0 255   0
0.146039 0.083949 0.159561   0 255   0
 0.145845 0.0838803  0.161654   0 255   0
 0.145591 0.0838032  0.164668   0 255   0
  0.14523 0.0836574   0.16877   0 255   0
 0.144733 0.0833823  0.174069   0 255   0
 0.142896 0.0818082  0.196322   0 255   0
  0.14863 0.0731167  0.187656   0 255   0
 0.148967 0.0731511  0.181065   0 255   0
 0.149536 0.0730968  0.172022   0 255   0
 0.149757 0.0730384  0.169404   0 255   0
 0.149945 0.0729689  0.167793   0 255   0
 0.150114 0.0728978  0.166936   0 255   0
 0.150286 0.0728392  0.166586   0 255   0
 0.150474 0.0728041  0.166526   0 255   0
 0.150673 0.0727929  0.166599   0 255   0
 0.150866 0.0727984  0.166705   0 255   0
  0.1512  0.07284 0.166826   0 255   0
 0.151362 0.0728702  0.166811   0 255   0
 0.151533 0.0728961  0.166741   0 255   0
0.151711 0.072905 0.166619   0 255   0
0.151882 0.072893 0.166466   0 255   0
 0.152036 0.0728719  0.166324   0 255   0
 0.152166 0.0728598  0.166232   0 255   0
 0.152284 0.0728671    0.1662   0 255   0
 0.15256 0.072921 0.166183   0 255   0
 0.152729 0.0729417  0.166151   0 255   0
 0.152889 0.0729437   0.16612   0 255   0
 0.153004 0.0729283  0.166111   0 255   0
 0.15305  0.07291 0.166125   0 255   0
 0.153037 0.0729081  0.166154   0 255   0
 0.153012 0.0729366  0.166191   0 255   0
 0.153048 0.0729985   0.16624   0 255   0
 0.153403 0.0731848  0.166433   0 255   0
0.153623 0.073276  0.16661   0 255   0
 0.153777 0.0733501  0.166846   0 255   0
 0.153853 0.0734151   0.16713   0 255   0
 0.153912 0.0734997  0.167442   0 255   0
 0.154073 0.0736474  0.167778   0 255   0
 0.154447 0.0738956  0.168144   0 255   0
 0.155068 0.0742521  0.168553   0 255   0
 0.156545 0.0751059  0.169493   0 255   0
 0.221202 0.0640641  0.163696   0 255   0
 0.222386 0.0640712  0.163501   0 255   0
 0.222392 0.0640913  0.163052   0 255   0
0.0462907 0.0740859  0.176627   0 255   0
0.0446131 0.0742862  0.176081   0 255   0
0.0436484 0.0744439  0.175452   0 255   0
0.0437626 0.0746219  0.174213   0 255   0
   0.2177 0.0636511  0.174722   0 255   0
 0.219135 0.0634375   0.17448   0 255   0
-0.0015658  0.0764487   0.178168   0 255   0
-0.00322724    0.076452    0.177634   0 255   0
-0.00428765   0.0764006    0.176966   0 255   0
-0.00469511   0.0763447    0.176202   0 255   0
-0.00438674   0.0763271    0.175363   0 255   0
-0.00328874   0.0763624    0.174446   0 255   0
0.130314 0.101192 0.169669   0 255   0
0.131245 0.102471 0.169831   0 255   0
 0.13167 0.103571 0.169885   0 255   0
0.131703 0.104477 0.169846   0 255   0
0.131445 0.105198 0.169737   0 255   0
0.131015 0.105748 0.169596   0 255   0
0.130555 0.106143 0.169463   0 255   0
0.130182 0.106408  0.16936   0 255   0
0.129945  0.10658 0.169289   0 255   0
0.129839 0.106703 0.169237   0 255   0
0.129846 0.106818 0.169198   0 255   0
0.129959 0.106963 0.169186   0 255   0
0.130169 0.107174 0.169216   0 255   0
0.130449 0.107488  0.16928   0 255   0
0.130754 0.107936 0.169358   0 255   0
0.131041 0.108536 0.169434   0 255   0
0.131284 0.109277 0.169516   0 255   0
0.131476 0.110136 0.169618   0 255   0
0.131619 0.111088  0.16974   0 255   0
0.131717 0.112113 0.169863   0 255   0
0.131767 0.113189 0.169965   0 255   0
0.131525 0.116324   0.1701   0 255   0
0.131311  0.11723 0.170126   0 255   0
0.131056  0.11804 0.170157   0 255   0
0.130769 0.118746 0.170183   0 255   0
 0.13045 0.119337 0.170177   0 255   0
0.130105 0.119795 0.170124   0 255   0
0.129753 0.120092 0.170029   0 255   0
0.129419 0.120207 0.169914   0 255   0
0.129123  0.12013 0.169797   0 255   0
 0.12887 0.119862  0.16968   0 255   0
0.128656 0.119384 0.169555   0 255   0
0.128477 0.118632 0.169405   0 255   0
  0.125738 -0.0140647    0.17355   0 255   0
  0.125903 -0.0156349   0.173512   0 255   0
     0.126 -0.0165061   0.173425   0 255   0
  0.126032 -0.0166321   0.173292   0 255   0
0.125494 0.180588 0.172188   0 255   0
0.125687 0.181124 0.171952   0 255   0
0.125826 0.180828 0.171587   0 255   0
0.125946 0.179723 0.171095   0 255   0
 0.124996 -0.020866  0.167714   0 255   0
  0.125238 -0.0224241    0.16747   0 255   0
  0.125459 -0.0234038   0.167144   0 255   0
  0.125629 -0.0237254   0.166744   0 255   0
0.120735 0.188421 0.163938   0 255   0
0.120797 0.189532 0.163585   0 255   0
0.120815 0.189695 0.162622   0 255   0
  0.116154 -0.0206875   0.160107   0 255   0
  0.116676 -0.0215976   0.160507   0 255   0
    0.1172 -0.0219426   0.160819   0 255   0
 0.124363 0.0711056  0.161593   0 255   0
 0.124618 0.0741572   0.16153   0 255   0
 0.123862 0.0749834  0.161275   0 255   0
 0.122923 0.0758586  0.160954   0 255   0
 0.121287 0.0776242  0.160723   0 255   0
 0.120772 0.0783731   0.16121   0 255   0
 0.120503 0.0790273   0.16225   0 255   0
 0.120489 0.0796474  0.163853   0 255   0
 0.120667 0.0802781  0.166002   0 255   0
 0.120916 0.0809107  0.168682   0 255   0
 0.121139 0.0814946   0.17186   0 255   0
 0.121326 0.0819687  0.175459   0 255   0
 0.121843 0.0824599  0.183449   0 255   0
 0.122273 0.0825206  0.187599   0 255   0
 0.122809 0.0825378  0.191742   0 255   0
 0.123388 0.0825711  0.195876   0 255   0
 0.123926 0.0826598  0.200045   0 255   0
 0.124376 0.0828214  0.204289   0 255   0
  0.12476 0.0830534  0.208588   0 255   0
  0.12514 0.0833316  0.212889   0 255   0
 0.125558 0.0836109   0.21714   0 255   0
 0.126005 0.0838395  0.221327   0 255   0
 0.126459 0.0839826  0.225457   0 255   0
 0.127432 0.0840707  0.233594   0 255   0
 0.121693 0.0880826  0.218448   0 255   0
 0.121062 0.0882978  0.210686   0 255   0
  0.11997 0.0886518   0.19563   0 255   0
 0.118983 0.0887635  0.180961   0 255   0
 0.118458 0.0887059  0.173949   0 255   0
 0.117891 0.0886016  0.167369   0 255   0
 0.117326 0.0884949  0.161313   0 255   0
 0.116831 0.0884342  0.155769   0 255   0
  0.11643 0.0884522  0.150671   0 255   0
 0.115657 0.0887151   0.14161   0 255   0
 0.115153 0.0888742  0.137692   0 255   0
 0.114582 0.0889569  0.134321   0 255   0
 0.113996 0.0889125  0.131589   0 255   0
 0.113427 0.0887515  0.129477   0 255   0
 0.112877 0.0885297  0.127878   0 255   0
 0.112354 0.0882953   0.12669   0 255   0
 0.111887 0.0880559  0.125879   0 255   0
 0.111197 0.0875376  0.125487   0 255   0
0.110921 0.087305 0.125982   0 255   0
 0.110638 0.0871542   0.12699   0 255   0
 0.110349 0.0871278  0.128554   0 255   0
 0.110087 0.0872348  0.130693   0 255   0
 0.109771 0.0876637  0.136457   0 255   0
 0.10974 0.087843 0.139846   0 255   0
 0.109758 0.0879463  0.143434   0 255   0
  0.10977 0.0879876  0.147173   0 255   0
 0.109747 0.0879969  0.151046   0 255   0
 0.109709 0.0879962   0.15505   0 255   0
 0.109689 0.0879981  0.159163   0 255   0
 0.109691 0.0880204  0.163309   0 255   0
 0.109654 0.0882325  0.171249   0 255   0
 0.109578 0.0884507  0.174912   0 255   0
 0.109478 0.0887515  0.178404   0 255   0
 0.109368 0.0891687  0.181803   0 255   0
 0.109241 0.0897607  0.185187   0 255   0
 0.109066 0.0905517  0.188592   0 255   0
 0.108806 0.0914884  0.191984   0 255   0
 0.108441 0.0924604   0.19529   0 255   0
 0.107439 0.0941493  0.201649   0 255   0
 0.106875 0.0948467  0.204904   0 255   0
 0.120564 0.0802484  0.293303   0 255   0
 0.120422 0.0789459  0.314078   0 255   0
 0.118611 0.0796087  0.313906   0 255   0
 0.116388 0.0803932  0.300638   0 255   0
 0.116057 0.0806393  0.297315   0 255   0
 0.115817 0.0808971  0.293908   0 255   0
 0.115625 0.0811567   0.29039   0 255   0
 0.114353 0.0824914  0.271529   0 255   0
 0.114105 0.0827899  0.267363   0 255   0
 0.113905 0.0830972  0.262985   0 255   0
 0.113748 0.0834013  0.258395   0 255   0
 0.112693 0.0845577  0.238825   0 255   0
 0.111555 0.0853043  0.229123   0 255   0
 0.111055 0.0857032  0.224359   0 255   0
   0.1107 0.0860955   0.21963   0 255   0
 0.110477 0.0864685  0.214913   0 255   0
 0.110307 0.0868038  0.210184   0 255   0
 0.109717 0.0872828  0.200623   0 255   0
 0.109215 0.0874219  0.195792   0 255   0
 0.108656 0.0875381  0.190977   0 255   0
 0.108143 0.0876993  0.186271   0 255   0
 0.107735 0.0879812  0.181819   0 255   0
 0.107425 0.0884212   0.17776   0 255   0
 0.107171 0.0889759  0.174158   0 255   0
 0.106936 0.0895325  0.170989   0 255   0
  0.10669 0.0899657  0.168207   0 255   0
  0.10641 0.0901998  0.165812   0 255   0
  0.10609 0.0902451  0.163852   0 255   0
0.105756 0.090181 0.162372   0 255   0
 0.105459 0.0901151  0.161364   0 255   0
 0.103099 0.0943916  0.158287   0 255   0
 0.103734 0.0943583  0.157966   0 255   0
 0.104448 0.0937036  0.157736   0 255   0
 0.104829 0.0925572  0.157687   0 255   0
 0.104583 0.0912491  0.157976   0 255   0
 0.103802 0.0900375  0.158831   0 255   0
 0.103085 0.0888873  0.160562   0 255   0
  0.10326 0.0875775  0.163539   0 255   0
 0.104933 0.0860143   0.16813   0 255   0
 0.108175 0.0844073  0.174583   0 255   0
 0.112475 0.0830737  0.182884   0 255   0
 0.116639 0.0822068  0.192578   0 255   0
 0.118395 0.0827574  0.202447   0 255   0
 0.10286 0.093937 0.158651   0 255   0
 0.103094 0.0932508  0.159026   0 255   0
 0.104272 0.0919853  0.159708   0 255   0
 0.104743 0.0916189  0.159974   0 255   0
 0.104984 0.0914596  0.160159   0 255   0
 0.105033 0.0914389  0.160258   0 255   0
 0.104986 0.0914294  0.160297   0 255   0
 0.104937 0.0913108  0.160321   0 255   0
 0.104938 0.0910551  0.160359   0 255   0
 0.104999 0.0907376  0.160406   0 255   0
 0.105098 0.0904732   0.16044   0 255   0
 0.105192 0.0903367  0.160447   0 255   0
 0.105241 0.0903205  0.160429   0 255   0
0.105175 0.090371 0.160362   0 255   0
 0.105128 0.0903149  0.160364   0 255   0
 0.105248 0.0901247  0.160762   0 255   0
  0.11997 0.0815629  0.278236   0 255   0
 0.119823 0.0823353  0.271155   0 255   0
 0.119681 0.0825381  0.267642   0 255   0
 0.119504 0.0826364  0.264182   0 255   0
0.119297 0.082711 0.260806   0 255   0
 0.119028 0.0828485  0.257502   0 255   0
  0.11866 0.0831007  0.254227   0 255   0
 0.118204 0.0834549  0.250927   0 255   0
 0.117724 0.0838466  0.247555   0 255   0
0.116915 0.084444 0.240474   0 255   0
 0.115866 0.0848459  0.228985   0 255   0
 0.115396 0.0850642  0.224977   0 255   0
 0.114887 0.0853334  0.220906   0 255   0
 0.114416 0.0855768  0.216779   0 255   0
 0.114019 0.0857236  0.212581   0 255   0
 0.113258 0.0857644  0.203862   0 255   0
 0.112807 0.0858446  0.199372   0 255   0
 0.111927 0.0865982  0.190473   0 255   0
  0.11155 0.0872662  0.186033   0 255   0
 0.111179 0.0879948  0.181437   0 255   0
 0.110784 0.0886638  0.176586   0 255   0
 0.110367 0.0891999  0.171489   0 255   0
 0.109947 0.0895873   0.16621   0 255   0
 0.109529 0.0898391    0.1608   0 255   0
 0.109103 0.0899748  0.155281   0 255   0
0.108674 0.090026 0.149689   0 255   0
0.108282 0.090039 0.144107   0 255   0
 0.10798 0.090062  0.13865   0 255   0
  0.10779 0.0901297  0.133437   0 255   0
0.107691 0.090257 0.128561   0 255   0
 0.107636 0.0904476  0.124086   0 255   0
 0.107579 0.0906996  0.120038   0 255   0
   0.1075 0.0909988  0.116414   0 255   0
0.107423 0.091306 0.113195   0 255   0
 0.107415 0.0915502   0.11037   0 255   0
 0.107551 0.0916496  0.107973   0 255   0
0.107864 0.091547 0.106116   0 255   0
 0.108322 0.0912385  0.104961   0 255   0
 0.108836 0.0907859  0.104639   0 255   0
 0.109285 0.0902916  0.105173   0 255   0
 0.109572 0.0898514  0.106498   0 255   0
0.109693 0.089508  0.10851   0 255   0
0.109752 0.089226 0.111105   0 255   0
 0.109893 0.0889244  0.114215   0 255   0
0.110197 0.088538 0.117821   0 255   0
 0.110635 0.0880511  0.121934   0 255   0
 0.111064 0.0875032  0.126551   0 255   0
  0.11128 0.0869634   0.13163   0 255   0
 0.11114 0.086489 0.137108   0 255   0
 0.110685 0.0860877  0.142942   0 255   0
 0.110158 0.0857109  0.149119   0 255   0
 0.109828 0.0853057   0.15566   0 255   0
 0.109811 0.0848754  0.162604   0 255   0
 0.110049 0.0844794  0.169969   0 255   0
 0.110399 0.0841977  0.177705   0 255   0
 0.110741 0.0841046  0.185694   0 255   0
 0.110998 0.0842888  0.193812   0 255   0
 0.111105 0.0875502  0.218661   0 255   0
 0.111049 0.0896806  0.227226   0 255   0
0.111035 0.092259 0.236002   0 255   0
0.111046 0.113765 0.312669   0 255   0
0.0970381  0.123529  0.327526   0 255   0
0.0968139  0.120978  0.321243   0 255   0
0.0976018   0.10689  0.265908   0 255   0
0.098698 0.103977 0.252677   0 255   0
  0.10248 0.0996856  0.229343   0 255   0
 0.103374 0.0987953  0.224361   0 255   0
 0.105682 0.0962396  0.211944   0 255   0
0.0391357 0.0764674  0.160504   0 255   0
0.0379761 0.0763322  0.161981   0 255   0
0.0384843 0.0761882  0.162721   0 255   0
0.0397299 0.0760182  0.163401   0 255   0
 0.213378 0.0685726  0.149932   0 255   0
 0.213196 0.0683381  0.150364   0 255   0
  0.21237 0.0680883  0.150884   0 255   0
0.0507233  0.073335  0.165276   0 255   0
0.0503556 0.0733614  0.165497   0 255   0
 0.050614 0.0734326   0.16597   0 255   0
0.0514674 0.0735474  0.166645   0 255   0
 0.052895 0.0736866  0.167428   0 255   0
0.0548951  0.073819  0.168219   0 255   0
 0.167806 0.0695764  0.160686   0 255   0
 0.169446 0.0692639  0.160916   0 255   0
 0.170873 0.0690211  0.161274   0 255   0
 0.173103 0.0686969  0.162218   0 255   0
 0.173913 0.0686177  0.162695   0 255   0
 0.174519 0.0685849   0.16313   0 255   0
 0.174915 0.0685754  0.163525   0 255   0
 0.175112 0.0685663  0.163885   0 255   0
 0.175144 0.0685458  0.164203   0 255   0
 0.175053 0.0685139  0.164469   0 255   0
0.174877 0.068479 0.164692   0 255   0
  0.17433 0.0684581  0.165131   0 255   0
  0.17396 0.0684969  0.165388   0 255   0
 0.173521 0.0685683  0.165667   0 255   0
 0.173018 0.0686573  0.165959   0 255   0
 0.172467 0.0687369  0.166267   0 255   0
 0.171889 0.0687757  0.166594   0 255   0
 0.171305 0.0687496  0.166939   0 255   0
 0.170731 0.0686536  0.167292   0 255   0
 0.169659 0.0683456  0.167984   0 255   0
 0.169179 0.0682063  0.168325   0 255   0
 0.168715 0.0681212  0.168679   0 255   0
 0.168223 0.0681067  0.169063   0 255   0
 0.167676 0.0681612  0.169484   0 255   0
 0.167095 0.0682678  0.169926   0 255   0
 0.166534 0.0684025  0.170359   0 255   0
0.166027 0.068544 0.170764   0 255   0
 0.165124 0.0687993  0.171508   0 255   0
 0.164662 0.0689084  0.171874   0 255   0
 0.164166 0.0690113  0.172238   0 255   0
 0.163635 0.0691146  0.172593   0 255   0
 0.163075 0.0692213  0.172927   0 255   0
 0.162499 0.0693266  0.173234   0 255   0
  0.16192 0.0694131  0.173516   0 255   0
 0.161349 0.0694549  0.173785   0 255   0
0.160256 0.069349 0.174329   0 255   0
 0.159732 0.0692294   0.17461   0 255   0
 0.159216 0.0691065  0.174894   0 255   0
 0.158707 0.0690059  0.175185   0 255   0
 0.158202 0.0689415  0.175484   0 255   0
 0.157703 0.0689166  0.175789   0 255   0
  0.15721 0.0689269  0.176093   0 255   0
  0.15672 0.0689641  0.176384   0 255   0
 0.155739 0.0690785  0.176897   0 255   0
 0.155243 0.0691305  0.177111   0 255   0
  0.15474 0.0691623  0.177294   0 255   0
 0.154213 0.0691719  0.177445   0 255   0
 0.153625 0.0691729  0.177563   0 255   0
 0.152934 0.0691884  0.177645   0 255   0
 0.152136 0.0692347  0.177696   0 255   0
 0.151292 0.0693079  0.177732   0 255   0
0.149893 0.069421 0.177893   0 255   0
 0.149513 0.0693846  0.178092   0 255   0
 0.149385 0.0692481  0.178345   0 255   0
 0.149477 0.0690072  0.178517   0 255   0
 0.150526 0.0677495  0.177573   0 255   0
 0.151003 0.0672273  0.177165   0 255   0
0.151805 0.066448 0.177197   0 255   0
 0.151986 0.0663507  0.177594   0 255   0
 0.152021 0.0664973   0.17806   0 255   0
 0.151882 0.0672359   0.17872   0 255   0
 0.151717 0.0675045  0.178968   0 255   0
 0.151454 0.0675378   0.17931   0 255   0
  0.1511 0.067375 0.179767   0 255   0
 0.150304 0.0670156  0.180722   0 255   0
0.149964 0.066996 0.181096   0 255   0
 0.149654 0.0670419  0.181398   0 255   0
 0.149236 0.0670365  0.181663   0 255   0
   0.1485 0.0668652  0.181922   0 255   0
 0.145676 0.0660282  0.182433   0 255   0
 0.143784 0.0656091  0.182628   0 255   0
 0.14181 0.065358 0.182776   0 255   0
 0.139871 0.0652972  0.182923   0 255   0
 0.136255 0.0656203  0.183093   0 255   0
 0.134589 0.0659826  0.182805   0 255   0
 0.125351 0.0733891   0.18068   0 255   0
 0.125166 0.0737021  0.180544   0 255   0
 0.124077 0.0737114  0.180674   0 255   0
0.123448 0.074044 0.180944   0 255   0
 0.122785 0.0745693  0.181283   0 255   0
 0.122193 0.0752922  0.181791   0 255   0
 0.120908 0.0774045  0.183963   0 255   0
 0.120232 0.0772904  0.185036   0 255   0
 0.120009 0.0767885  0.185463   0 255   0
 0.119808 0.0761802   0.18586   0 255   0
 0.119526 0.0756243  0.186256   0 255   0
 0.119075 0.0752587  0.186707   0 255   0
 0.118436 0.0751608  0.187283   0 255   0
 0.117697 0.0752773  0.188003   0 255   0
 0.117054 0.0753881  0.188792   0 255   0
0.116789 0.074685 0.190034   0 255   0
 0.117182 0.0738805  0.190307   0 255   0
 0.117759 0.0730267  0.190352   0 255   0
 0.121288 0.0705475  0.189899   0 255   0
 0.122496 0.0702834  0.189604   0 255   0
 0.127157 0.0699764  0.187883   0 255   0
 0.128351 0.0698948   0.18771   0 255   0
 0.129654 0.0700118   0.18752   0 255   0
 0.130801 0.0704291  0.187311   0 255   0
  0.13165 0.0711017  0.187077   0 255   0
 0.132227 0.0718614  0.186796   0 255   0
 0.132586 0.0725223  0.186417   0 255   0
 0.132705 0.0729728  0.185867   0 255   0
 0.132536 0.0731736  0.185099   0 255   0
 0.129881 0.0706162  0.181623   0 255   0
 0.129063 0.0699438  0.181554   0 255   0
 0.128027 0.0694443  0.181544   0 255   0
  0.12562 0.0689429  0.181344   0 255   0
 0.124522 0.0688678  0.181245   0 255   0
 0.122285 0.0694992  0.181492   0 255   0
 0.122064 0.0699235  0.181516   0 255   0
 0.122454 0.0713319   0.18221   0 255   0
 0.123254 0.0716025  0.182574   0 255   0
 0.125232 0.0715381  0.182924   0 255   0
 0.126504 0.0698304  0.183688   0 255   0
 0.126776 0.0695035  0.184387   0 255   0
 0.127096 0.0691598  0.185135   0 255   0
 0.127301 0.0687838  0.185824   0 255   0
 0.127286 0.0683553  0.186377   0 255   0
 0.127079 0.0678685  0.186765   0 255   0
 0.126807 0.0673553  0.187012   0 255   0
 0.126603 0.0668877  0.187187   0 255   0
0.126561 0.066545  0.18737   0 255   0
 0.126724 0.0663712  0.187606   0 255   0
 0.131483 0.0665973  0.188994   0 255   0
 0.133177 0.0718409  0.180177   0 255   0
 0.132875 0.0722554   0.18023   0 255   0
 0.132351 0.0726608  0.180492   0 255   0
  0.13159 0.0730721  0.180914   0 255   0
 0.130592 0.0734881   0.18143   0 255   0
 0.129382 0.0738961  0.181967   0 255   0
  0.12805 0.0742869  0.182463   0 255   0
 0.126771 0.0746691  0.182888   0 255   0
 0.125713 0.0750662  0.183229   0 255   0
0.124894 0.075499 0.183469   0 255   0
 0.124143 0.0759697  0.183578   0 255   0
 0.123265 0.0764552  0.183562   0 255   0
 0.122235 0.0769129  0.183505   0 255   0
 0.121209 0.0772967  0.183543   0 255   0
  0.12036 0.0775732  0.183763   0 255   0
 0.119753 0.0777333  0.184146   0 255   0
 0.148121 0.0696842  0.191319   0 255   0
  0.13272 0.0686721  0.186951   0 255   0
 0.132843 0.0677862  0.190193   0 255   0
 0.132592 0.0675793  0.190011   0 255   0
 0.144106 0.0641824  0.177799   0 255   0
 0.130108 0.0649355  0.179572   0 255   0
 0.128635 0.0649801  0.178501   0 255   0
 0.121618 0.0568501  0.176976   0 255   0
 0.121408 0.0567789  0.178794   0 255   0
0.126856 0.073558   0.1955   0 255   0
 0.129694 0.0766394  0.176802   0 255   0
 0.129566 0.0770311   0.17737   0 255   0
 0.131005 0.0756484  0.198262   0 255   0
 0.131009 0.0742101  0.198479   0 255   0
 0.130842 0.0703059  0.176911   0 255   0
 0.131089 0.0721758  0.196382   0 255   0
 0.133039 0.0716288  0.174101   0 255   0
 0.133167 0.0728404  0.173982   0 255   0
 0.133319 0.0738707  0.174004   0 255   0
 0.133664 0.0753767  0.174209   0 255   0
  0.13403 0.0760978  0.174371   0 255   0
0.134214 0.076157 0.174438   0 255   0
0.135146 0.074558 0.175241   0 255   0
 0.135407 0.0738763  0.175318   0 255   0
 0.136106 0.0720705  0.175481   0 255   0
 0.136744 0.0709594  0.175688   0 255   0
 0.137714 0.0697614  0.176033   0 255   0
  0.13901 0.0685692  0.176497   0 255   0
 0.140447 0.0674889  0.177024   0 255   0
 0.141706 0.0665873  0.177551   0 255   0
 0.142477 0.0658707  0.178033   0 255   0
 0.142613 0.0653037  0.178455   0 255   0
 0.141787 0.0643709  0.179285   0 255   0
 0.145175 0.0565305  0.184926   0 255   0
0.145684 0.055909  0.18468   0 255   0
 0.145495 0.0556287  0.184298   0 255   0
 0.144563 0.0557478  0.183779   0 255   0
 0.143131 0.0562777  0.183087   0 255   0
 0.137893 0.0609076  0.179601   0 255   0
  0.13723 0.0622923  0.178881   0 255   0
  0.13679 0.0636724  0.178219   0 255   0
 0.136511 0.0649452  0.177613   0 255   0
  0.13633 0.0659852  0.177083   0 255   0
 0.136179 0.0667138   0.17664   0 255   0
 0.134476 0.0677574  0.175866   0 255   0
 0.134008 0.0682173  0.176172   0 255   0
 0.133565 0.0689308  0.176685   0 255   0
 0.133234 0.0698074   0.17733   0 255   0
 0.133107 0.0706855  0.177989   0 255   0
0.133413 0.071953 0.178961   0 255   0
 0.133595 0.0722718  0.179214   0 255   0
  0.13363 0.0723923  0.179342   0 255   0
 0.133502 0.0723412  0.179393   0 255   0
 0.133287 0.0721742  0.179414   0 255   0
 0.13312 0.071974 0.179438   0 255   0
0.133111 0.071822 0.179491   0 255   0
 0.133244 0.0717634  0.179607   0 255   0
 0.133361 0.0718854  0.180196   0 255   0
0.133194 0.071995 0.180656   0 255   0
 0.133029 0.0721007  0.181136   0 255   0
 0.133076 0.0722111   0.18158   0 255   0
  0.13346 0.0723666  0.181987   0 255   0
 0.134943 0.0729408   0.18283   0 255   0
 0.128433 0.0696827  0.184794   0 255   0
 0.128091 0.0690474  0.184933   0 255   0
 0.127797 0.0685417  0.185141   0 255   0
 0.128313 0.0691469   0.18646   0 255   0
 0.130143 0.0750728  0.187932   0 255   0
 0.130242 0.0751946  0.188222   0 255   0
 0.131292 0.0759133  0.189554   0 255   0
 0.131401 0.0759277  0.190207   0 255   0
  0.13134 0.0759034  0.191033   0 255   0
 0.131169 0.0759808   0.19197   0 255   0
 0.129925 0.0782647  0.195937   0 255   0
 0.128531 0.0791852  0.199385   0 255   0
 0.128631 0.0787887   0.19971   0 255   0
 0.134517 0.0802224  0.197141   0 255   0
 0.135061 0.0817705  0.197344   0 255   0
  0.13557 0.0833614  0.197578   0 255   0
 0.136183 0.0848254  0.197562   0 255   0
 0.136985 0.0860526  0.197099   0 255   0
 0.138947 0.0878543  0.194836   0 255   0
 0.139842 0.0886231   0.19346   0 255   0
 0.141011 0.0912429  0.190839   0 255   0
 0.140845 0.0922045  0.190123   0 255   0
 0.140563 0.0931597  0.189294   0 255   0
0.140322  0.09409 0.188479   0 255   0
 0.140119 0.0958241  0.187415   0 255   0
0.140016 0.096597 0.187215   0 255   0
 0.139833 0.0972989  0.187221   0 255   0
 0.139587 0.0979474  0.187437   0 255   0
 0.139291 0.0985847  0.187835   0 255   0
 0.138899 0.0992674  0.188311   0 255   0
0.136249  0.10134 0.188891   0 255   0
0.135828 0.100841 0.188713   0 255   0
 0.135586 0.0996541  0.188526   0 255   0
  0.127537 -0.0200473   0.195435   0 255   0
  0.127152 -0.0194967   0.195614   0 255   0
  0.126858 -0.0181509   0.195746   0 255   0
0.146124 0.180144 0.187656   0 255   0
0.146031 0.178855 0.187668   0 255   0
 0.138106 -0.011448  0.195225   0 255   0
  0.137969 -0.0104759   0.195234   0 255   0
 0.140261 0.0892695  0.186115   0 255   0
 0.140454 0.0904717   0.18631   0 255   0
  0.14062 0.0913883  0.186457   0 255   0
 0.140781 0.0920613  0.186534   0 255   0
 0.140931 0.0925322  0.186529   0 255   0
 0.140985 0.0928368  0.186432   0 255   0
 0.140805 0.0930027  0.186231   0 255   0
 0.139233 0.0929909  0.185471   0 255   0
 0.137644 0.0928309  0.184934   0 255   0
 0.135357 0.0925679  0.184402   0 255   0
 0.132237 0.0922049  0.183991   0 255   0
0.0329992  0.089396  0.190546   0 255   0
0.0328209 0.0894929  0.191651   0 255   0
0.0334992 0.0895742  0.192679   0 255   0
0.0350268 0.0895269  0.193548   0 255   0
 0.222574 0.0742275  0.187082   0 255   0
 0.221975 0.0739397  0.187259   0 255   0
0.220405  0.07377 0.187463   0 255   0
0.0362807 0.0891533  0.193892   0 255   0
0.0372755 0.0894642  0.194216   0 255   0
0.0392836 0.0896403  0.194552   0 255   0
 0.153515 0.0768162  0.170688   0 255   0
 0.154873 0.0764963  0.170434   0 255   0
0.155951 0.076244 0.170369   0 255   0
 0.156699 0.0760152  0.170355   0 255   0
 0.157058 0.0757715  0.170234   0 255   0
 0.156995 0.0754755  0.169933   0 255   0
